<svg width="39" height="40" viewBox="0 0 39 40" fill="none" xmlns="http://www.w3.org/2000/svg">
<g clip-path="url(#clip0_10142_1682)">
<circle cx="19.5" cy="20" r="19.5" fill="#6938EF"/>
<path d="M30.55 21.8475C30.2837 21.5212 29.6462 21.0937 28.3862 21.9112C27.0887 22.7062 25.6337 23.5537 25.03 23.85C24.58 22.8937 23.755 22.7325 23.335 22.8C19.78 23.4187 18.4225 22.35 18.4187 22.35C18.3362 22.275 16.3862 20.5612 14.2075 21.7312C13.0337 22.3612 12.2725 22.5262 11.8825 22.5675V21.99C11.8825 21.7837 11.7137 21.615 11.5075 21.615H9.535C9.32875 21.615 9.16 21.7837 9.16 21.99V22.4025H7.5625C7.35625 22.4025 7.1875 22.5712 7.1875 22.7775C7.1875 22.9837 7.35625 23.1525 7.5625 23.1525H9.16V27.135H7.5625C7.35625 27.135 7.1875 27.3037 7.1875 27.51C7.1875 27.7162 7.35625 27.885 7.5625 27.885H9.16V28.2975C9.16 28.5037 9.32875 28.6725 9.535 28.6725H11.5075C11.7137 28.6725 11.8825 28.5037 11.8825 28.2975V28.2487H12.4037C12.4262 28.2487 14.5262 28.3237 16.5925 29.2087C17.86 29.7525 19.2137 30.0375 20.3125 30.0375C21.0587 30.0375 21.685 29.9062 22.09 29.6362C22.3375 29.4825 28.1537 25.83 30.4337 23.5125C30.8912 23.0475 30.9437 22.3312 30.55 21.8475ZM11.1287 27.9225H9.91V22.365H11.1325V27.9225H11.1287ZM29.8975 22.9875C27.6775 25.2412 21.7487 28.965 21.6812 29.0062C20.9912 29.4637 18.9625 29.4075 16.885 28.5187C14.6837 27.5775 12.5162 27.5025 12.4112 27.4987H11.8787V23.3212C12.3625 23.2837 13.24 23.1 14.56 22.3912C16.27 21.4725 17.8525 22.8487 17.9237 22.9125C17.9875 22.965 19.5137 24.225 23.4587 23.5387C23.485 23.535 24.1225 23.4487 24.4338 24.3675C24.4075 24.5925 24.1937 25.545 22.4912 25.6237H17.5937C17.3875 25.6237 17.2187 25.7925 17.2187 25.9987C17.2187 26.205 17.3875 26.3737 17.5937 26.3737H22.51C24.5237 26.2837 25.0225 25.155 25.1462 24.6112C25.6375 24.42 26.6237 23.8725 28.7875 22.545C29.1962 22.2787 29.7325 22.0275 29.9687 22.32C30.115 22.5037 30.085 22.7962 29.8975 22.9875Z" fill="white"/>
<path d="M20.6388 21.5738C24.115 21.5738 26.9425 18.7463 26.9425 15.2701C26.9425 11.7938 24.115 8.96631 20.6388 8.96631C17.1625 8.96631 14.335 11.7938 14.335 15.2701C14.335 18.7463 17.1625 21.5738 20.6388 21.5738ZM20.6388 9.71256C23.7025 9.71256 26.1925 12.2063 26.1925 15.2663C26.1925 18.3263 23.6988 20.8201 20.6388 20.8201C17.5788 20.8201 15.085 18.3263 15.085 15.2663C15.085 12.2063 17.575 9.71256 20.6388 9.71256Z" fill="white"/>
<path d="M20.6387 19.8788C23.1812 19.8788 25.2512 17.8088 25.2512 15.2663C25.2512 12.7238 23.1812 10.6538 20.6387 10.6538C18.0962 10.6538 16.0262 12.7238 16.0262 15.2663C16.0262 17.8088 18.0962 19.8788 20.6387 19.8788ZM20.6387 11.4076C22.7687 11.4076 24.5012 13.1401 24.5012 15.2701C24.5012 17.4001 22.7687 19.1326 20.6387 19.1326C18.5087 19.1326 16.7762 17.4001 16.7762 15.2701C16.7762 13.1401 18.5087 11.4076 20.6387 11.4076Z" fill="white"/>
<path d="M19.2625 15.7499L18.7675 17.2724C18.7187 17.4261 18.7712 17.5949 18.9025 17.6924C18.97 17.7411 19.045 17.7636 19.1237 17.7636C19.2025 17.7636 19.2775 17.7411 19.345 17.6924L20.6387 16.7511L21.9325 17.6924C22.0637 17.7861 22.2437 17.7861 22.375 17.6924C22.5062 17.5986 22.5625 17.4261 22.51 17.2724L22.015 15.7499L23.3087 14.8086C23.44 14.7149 23.4962 14.5424 23.4437 14.3886C23.3912 14.2349 23.2487 14.1299 23.0875 14.1299H21.49L20.995 12.6074C20.9462 12.4536 20.8 12.3486 20.6387 12.3486C20.4775 12.3486 20.3312 12.4536 20.2825 12.6074L19.7875 14.1299H18.19C18.0287 14.1299 17.8825 14.2349 17.8337 14.3886C17.785 14.5424 17.8375 14.7111 17.9687 14.8086L19.2625 15.7499ZM20.0612 14.8799C20.2225 14.8799 20.3687 14.7749 20.4175 14.6211L20.6387 13.9386L20.86 14.6211C20.9087 14.7749 21.055 14.8799 21.2162 14.8799H21.9325L21.3512 15.2999C21.22 15.3936 21.1637 15.5661 21.2162 15.7199L21.4375 16.4024L20.8562 15.9824C20.725 15.8886 20.5487 15.8886 20.4137 15.9824L19.8325 16.4024L20.0537 15.7199C20.1025 15.5661 20.05 15.3974 19.9187 15.2999L19.3375 14.8799H20.0612Z" fill="white"/>
</g>
<defs>
<clipPath id="clip0_10142_1682">
<rect width="39" height="39" fill="white" transform="translate(0 0.5)"/>
</clipPath>
</defs>
</svg>
