<svg width="16" height="20" viewBox="0 0 16 20" fill="none" xmlns="http://www.w3.org/2000/svg">
<path d="M14.9038 13.75L13.5163 11.9238C13.4919 11.8913 13.4788 11.8519 13.4788 11.8113V6.65505C13.495 5.21267 12.9565 3.81918 11.9745 2.76254C10.9926 1.70591 9.6422 1.06689 8.2025 0.977548C7.45134 0.938871 6.70017 1.05349 5.99473 1.31442C5.28929 1.57535 4.64434 1.97714 4.09915 2.49531C3.55397 3.01348 3.11995 3.6372 2.82354 4.32848C2.52713 5.01976 2.37452 5.76415 2.375 6.5163V12.0025C2.375 12.0431 2.36184 12.0826 2.3375 12.115L1.1075 13.75C0.887439 13.9917 0.742279 14.292 0.689654 14.6146C0.637029 14.9371 0.679203 15.268 0.811054 15.5671C0.942906 15.8661 1.15876 16.1205 1.4324 16.2992C1.70603 16.4779 2.02568 16.5733 2.3525 16.5738H13.6475C13.9753 16.5755 14.2965 16.4817 14.5718 16.3038C14.8471 16.1259 15.0647 15.8717 15.1979 15.5722C15.3312 15.2728 15.3743 14.941 15.3221 14.6174C15.2698 14.2938 15.1245 13.9924 14.9038 13.75ZM14.1538 15.1C14.1113 15.201 14.0398 15.2869 13.9483 15.3471C13.8568 15.4072 13.7495 15.4387 13.64 15.4375H2.3525C2.24481 15.4356 2.13995 15.4027 2.0504 15.3428C1.96084 15.283 1.89035 15.1987 1.84731 15.1C1.80426 15.0012 1.79046 14.8922 1.80756 14.7859C1.82466 14.6795 1.87193 14.5803 1.94375 14.5L1.985 14.4513L3.24875 12.7863C3.41389 12.5585 3.50192 12.2839 3.5 12.0025V6.5163C3.5 5.93492 3.61476 5.35926 3.83769 4.82232C4.06063 4.28539 4.38736 3.79774 4.79916 3.38734C5.21095 2.97694 5.6997 2.65186 6.23739 2.43074C6.77508 2.20963 7.35113 2.09682 7.9325 2.0988H8.15C9.30118 2.17462 10.3793 2.68969 11.1616 3.5376C11.9439 4.38551 12.3707 5.5015 12.3538 6.65505V11.83C12.3537 12.1169 12.4472 12.396 12.62 12.625L14.0225 14.47L14.06 14.5113C14.1354 14.591 14.1853 14.6914 14.2034 14.7996C14.2214 14.9078 14.2067 15.019 14.1613 15.1188L14.1538 15.1ZM10.22 18.0288C9.93858 18.3443 9.59365 18.5967 9.20783 18.7696C8.82202 18.9424 8.40402 19.0318 7.98125 19.0318C7.55848 19.0318 7.14049 18.9424 6.75467 18.7696C6.36885 18.5967 6.02392 18.3443 5.7425 18.0288C5.65248 17.9166 5.60887 17.7742 5.62061 17.6308C5.63236 17.4875 5.69859 17.3541 5.80567 17.258C5.91275 17.162 6.05256 17.1106 6.19635 17.1145C6.34014 17.1183 6.47698 17.1771 6.57875 17.2788C6.75465 17.4764 6.9704 17.6346 7.2118 17.7429C7.4532 17.8513 7.71479 17.9073 7.97938 17.9073C8.24396 17.9073 8.50555 17.8513 8.74695 17.7429C8.98835 17.6346 9.2041 17.4764 9.38 17.2788C9.48177 17.1771 9.61862 17.1183 9.76241 17.1145C9.90619 17.1106 10.046 17.162 10.1531 17.258C10.2602 17.3541 10.3264 17.4875 10.3381 17.6308C10.3499 17.7742 10.3063 17.9166 10.2163 18.0288H10.22Z" fill="black"/>
</svg>
