<svg width="188" height="44" viewBox="0 0 188 44" fill="none" xmlns="http://www.w3.org/2000/svg">
<g clip-path="url(#clip0_10325_385)">
<circle cx="19.5" cy="22" r="19.5" fill="#6938EF"/>
<path d="M30.55 23.8475C30.2837 23.5212 29.6462 23.0937 28.3862 23.9112C27.0887 24.7062 25.6337 25.5537 25.03 25.85C24.58 24.8937 23.755 24.7325 23.335 24.8C19.78 25.4187 18.4225 24.35 18.4187 24.35C18.3362 24.275 16.3862 22.5612 14.2075 23.7312C13.0337 24.3612 12.2725 24.5262 11.8825 24.5675V23.99C11.8825 23.7837 11.7137 23.615 11.5075 23.615H9.535C9.32875 23.615 9.16 23.7837 9.16 23.99V24.4025H7.5625C7.35625 24.4025 7.1875 24.5712 7.1875 24.7775C7.1875 24.9837 7.35625 25.1525 7.5625 25.1525H9.16V29.135H7.5625C7.35625 29.135 7.1875 29.3037 7.1875 29.51C7.1875 29.7162 7.35625 29.885 7.5625 29.885H9.16V30.2975C9.16 30.5037 9.32875 30.6725 9.535 30.6725H11.5075C11.7137 30.6725 11.8825 30.5037 11.8825 30.2975V30.2487H12.4037C12.4262 30.2487 14.5262 30.3237 16.5925 31.2087C17.86 31.7525 19.2137 32.0375 20.3125 32.0375C21.0587 32.0375 21.685 31.9062 22.09 31.6362C22.3375 31.4825 28.1537 27.83 30.4337 25.5125C30.8912 25.0475 30.9437 24.3312 30.55 23.8475ZM11.1287 29.9225H9.91V24.365H11.1325V29.9225H11.1287ZM29.8975 24.9875C27.6775 27.2412 21.7487 30.965 21.6812 31.0062C20.9912 31.4637 18.9625 31.4075 16.885 30.5187C14.6837 29.5775 12.5162 29.5025 12.4112 29.4987H11.8787V25.3212C12.3625 25.2837 13.24 25.1 14.56 24.3912C16.27 23.4725 17.8525 24.8487 17.9237 24.9125C17.9875 24.965 19.5137 26.225 23.4587 25.5387C23.485 25.535 24.1225 25.4487 24.4338 26.3675C24.4075 26.5925 24.1937 27.545 22.4912 27.6237H17.5937C17.3875 27.6237 17.2187 27.7925 17.2187 27.9987C17.2187 28.205 17.3875 28.3737 17.5937 28.3737H22.51C24.5237 28.2837 25.0225 27.155 25.1462 26.6112C25.6375 26.42 26.6237 25.8725 28.7875 24.545C29.1962 24.2787 29.7325 24.0275 29.9687 24.32C30.115 24.5037 30.085 24.7962 29.8975 24.9875Z" fill="white"/>
<path d="M20.6388 23.5738C24.115 23.5738 26.9425 20.7463 26.9425 17.2701C26.9425 13.7938 24.115 10.9663 20.6388 10.9663C17.1625 10.9663 14.335 13.7938 14.335 17.2701C14.335 20.7463 17.1625 23.5738 20.6388 23.5738ZM20.6388 11.7126C23.7025 11.7126 26.1925 14.2063 26.1925 17.2663C26.1925 20.3263 23.6988 22.8201 20.6388 22.8201C17.5788 22.8201 15.085 20.3263 15.085 17.2663C15.085 14.2063 17.575 11.7126 20.6388 11.7126Z" fill="white"/>
<path d="M20.6387 21.8788C23.1812 21.8788 25.2512 19.8088 25.2512 17.2663C25.2512 14.7238 23.1812 12.6538 20.6387 12.6538C18.0962 12.6538 16.0262 14.7238 16.0262 17.2663C16.0262 19.8088 18.0962 21.8788 20.6387 21.8788ZM20.6387 13.4076C22.7687 13.4076 24.5012 15.1401 24.5012 17.2701C24.5012 19.4001 22.7687 21.1326 20.6387 21.1326C18.5087 21.1326 16.7762 19.4001 16.7762 17.2701C16.7762 15.1401 18.5087 13.4076 20.6387 13.4076Z" fill="white"/>
<path d="M19.2625 17.7499L18.7675 19.2724C18.7187 19.4261 18.7712 19.5949 18.9025 19.6924C18.97 19.7411 19.045 19.7636 19.1237 19.7636C19.2025 19.7636 19.2775 19.7411 19.345 19.6924L20.6387 18.7511L21.9325 19.6924C22.0637 19.7861 22.2437 19.7861 22.375 19.6924C22.5062 19.5986 22.5625 19.4261 22.51 19.2724L22.015 17.7499L23.3087 16.8086C23.44 16.7149 23.4962 16.5424 23.4437 16.3886C23.3912 16.2349 23.2487 16.1299 23.0875 16.1299H21.49L20.995 14.6074C20.9462 14.4536 20.8 14.3486 20.6387 14.3486C20.4775 14.3486 20.3312 14.4536 20.2825 14.6074L19.7875 16.1299H18.19C18.0287 16.1299 17.8825 16.2349 17.8337 16.3886C17.785 16.5424 17.8375 16.7111 17.9687 16.8086L19.2625 17.7499ZM20.0612 16.8799C20.2225 16.8799 20.3687 16.7749 20.4175 16.6211L20.6387 15.9386L20.86 16.6211C20.9087 16.7749 21.055 16.8799 21.2162 16.8799H21.9325L21.3512 17.2999C21.22 17.3936 21.1637 17.5661 21.2162 17.7199L21.4375 18.4024L20.8562 17.9824C20.725 17.8886 20.5487 17.8886 20.4137 17.9824L19.8325 18.4024L20.0537 17.7199C20.1025 17.5661 20.05 17.3974 19.9187 17.2999L19.3375 16.8799H20.0612Z" fill="white"/>
</g>
<path d="M48.233 39V28.8182H51.6733C52.4688 28.8182 53.1217 28.9541 53.6321 29.2259C54.1425 29.4943 54.5204 29.8639 54.7656 30.3345C55.0109 30.8052 55.1335 31.3404 55.1335 31.9403C55.1335 32.5402 55.0109 33.0722 54.7656 33.5362C54.5204 34.0002 54.1442 34.3648 53.6371 34.63C53.13 34.8918 52.482 35.0227 51.6932 35.0227H48.9091V33.9091H51.6534C52.197 33.9091 52.6345 33.8295 52.9659 33.6705C53.3007 33.5114 53.5426 33.286 53.6918 32.9943C53.8442 32.6993 53.9205 32.348 53.9205 31.9403C53.9205 31.5327 53.8442 31.1764 53.6918 30.8714C53.5393 30.5665 53.2957 30.3312 52.9609 30.1655C52.6262 29.9964 52.1837 29.9119 51.6335 29.9119H49.4659V39H48.233ZM53.0256 34.4261L55.5312 39H54.0994L51.6335 34.4261H53.0256ZM60.1486 39.1591C59.4128 39.1591 58.7781 38.9967 58.2445 38.6719C57.7142 38.3438 57.3049 37.8864 57.0165 37.2997C56.7315 36.7098 56.589 36.0237 56.589 35.2415C56.589 34.4593 56.7315 33.7699 57.0165 33.1733C57.3049 32.5734 57.7059 32.1061 58.2196 31.7713C58.7367 31.4332 59.3399 31.2642 60.0293 31.2642C60.427 31.2642 60.8198 31.3305 61.2076 31.4631C61.5953 31.5956 61.9483 31.8111 62.2665 32.1094C62.5847 32.4044 62.8382 32.7955 63.0272 33.2827C63.2161 33.7699 63.3105 34.3698 63.3105 35.0824V35.5795H57.4242V34.5653H62.1174C62.1174 34.1345 62.0312 33.75 61.8588 33.4119C61.6898 33.0739 61.4479 32.8071 61.133 32.6115C60.8214 32.416 60.4535 32.3182 60.0293 32.3182C59.562 32.3182 59.1576 32.4342 58.8162 32.6662C58.4782 32.8949 58.218 33.1932 58.0357 33.5611C57.8534 33.929 57.7623 34.3234 57.7623 34.7443V35.4205C57.7623 35.9972 57.8617 36.486 58.0605 36.8871C58.2627 37.2848 58.5428 37.5881 58.9007 37.7969C59.2587 38.0024 59.6747 38.1051 60.1486 38.1051C60.4569 38.1051 60.7353 38.062 60.9838 37.9759C61.2357 37.8864 61.4528 37.7538 61.6351 37.5781C61.8174 37.3991 61.9583 37.1771 62.0577 36.9119L63.1912 37.2301C63.0719 37.6146 62.8714 37.9527 62.5897 38.2443C62.3079 38.5327 61.9599 38.758 61.5456 38.9205C61.1313 39.0795 60.6657 39.1591 60.1486 39.1591ZM66.8255 39L64.4988 31.3636H65.7317L67.3823 37.2102H67.4618L69.0925 31.3636H70.3453L71.9561 37.1903H72.0357L73.6863 31.3636H74.9192L72.5925 39H71.4391L69.7686 33.1335H69.6493L67.9789 39H66.8255ZM78.7175 39.179C78.2336 39.179 77.7944 39.0878 77.4 38.9055C77.0056 38.7199 76.6924 38.4531 76.4604 38.1051C76.2284 37.7538 76.1124 37.3295 76.1124 36.8324C76.1124 36.3949 76.1986 36.0402 76.3709 35.7685C76.5433 35.4934 76.7736 35.2779 77.062 35.1222C77.3503 34.9664 77.6685 34.8504 78.0165 34.7741C78.3678 34.6946 78.7208 34.6316 79.0755 34.5852C79.5395 34.5256 79.9157 34.4808 80.204 34.451C80.4957 34.4179 80.7078 34.3632 80.8404 34.2869C80.9763 34.2107 81.0442 34.0781 81.0442 33.8892V33.8494C81.0442 33.3589 80.91 32.9777 80.6415 32.706C80.3764 32.4342 79.9737 32.2983 79.4334 32.2983C78.8733 32.2983 78.4341 32.4209 78.1159 32.6662C77.7978 32.9115 77.574 33.1733 77.4448 33.4517L76.3311 33.054C76.53 32.59 76.7952 32.2287 77.1266 31.9702C77.4614 31.7083 77.8259 31.526 78.2203 31.4233C78.6181 31.3172 79.0092 31.2642 79.3936 31.2642C79.6389 31.2642 79.9206 31.294 80.2388 31.3537C80.5603 31.41 80.8702 31.5277 81.1685 31.7067C81.4701 31.8857 81.7203 32.1558 81.9192 32.517C82.1181 32.8783 82.2175 33.3622 82.2175 33.9688V39H81.0442V37.9659H80.9846C80.905 38.1316 80.7724 38.3089 80.5868 38.4979C80.4012 38.6868 80.1543 38.8475 79.8461 38.9801C79.5378 39.1127 79.1616 39.179 78.7175 39.179ZM78.8965 38.125C79.3605 38.125 79.7516 38.0339 80.0698 37.8516C80.3913 37.6693 80.6332 37.4339 80.7956 37.1456C80.9614 36.8572 81.0442 36.554 81.0442 36.2358V35.1619C80.9945 35.2216 80.8851 35.2763 80.7161 35.326C80.5504 35.3724 80.3581 35.4138 80.1394 35.4503C79.9239 35.4834 79.7135 35.5133 79.508 35.5398C79.3058 35.563 79.1417 35.5829 79.0158 35.5994C78.7109 35.6392 78.4258 35.7038 78.1607 35.7933C77.8989 35.8795 77.6867 36.0104 77.5243 36.1861C77.3652 36.3584 77.2857 36.5937 77.2857 36.892C77.2857 37.2997 77.4365 37.608 77.7381 37.8168C78.043 38.0223 78.4292 38.125 78.8965 38.125ZM84.359 39V31.3636H85.4925V32.517H85.5721C85.7113 32.1392 85.9632 31.8326 86.3278 31.5973C86.6924 31.362 87.1033 31.2443 87.5607 31.2443C87.6469 31.2443 87.7546 31.246 87.8839 31.2493C88.0131 31.2526 88.1109 31.2576 88.1772 31.2642V32.4574C88.1374 32.4474 88.0463 32.4325 87.9038 32.4126C87.7646 32.3894 87.6171 32.3778 87.4613 32.3778C87.0901 32.3778 86.7586 32.4557 86.467 32.6115C86.1786 32.764 85.9499 32.9761 85.7809 33.2479C85.6152 33.5163 85.5323 33.8229 85.5323 34.1676V39H84.359ZM92.2191 39.1591C91.5827 39.1591 91.021 38.9983 90.5337 38.6768C90.0465 38.352 89.6654 37.8946 89.3903 37.3047C89.1152 36.7114 88.9776 36.0104 88.9776 35.2017C88.9776 34.3996 89.1152 33.7036 89.3903 33.1136C89.6654 32.5237 90.0482 32.0679 90.5387 31.7464C91.0292 31.425 91.596 31.2642 92.239 31.2642C92.7362 31.2642 93.1289 31.3471 93.4173 31.5128C93.7089 31.6752 93.931 31.8608 94.0835 32.0696C94.2392 32.2751 94.3602 32.4441 94.4464 32.5767H94.5458V28.8182H95.7191V39H94.5856V37.8267H94.4464C94.3602 37.9659 94.2376 38.1416 94.0785 38.3537C93.9194 38.5625 93.6924 38.7498 93.3974 38.9155C93.1024 39.0779 92.7096 39.1591 92.2191 39.1591ZM92.3782 38.1051C92.8488 38.1051 93.2466 37.9825 93.5714 37.7372C93.8962 37.4886 94.1431 37.1456 94.3121 36.7081C94.4812 36.2673 94.5657 35.7585 94.5657 35.1818C94.5657 34.6117 94.4828 34.1129 94.3171 33.6854C94.1514 33.2545 93.9061 32.9197 93.5813 32.6811C93.2565 32.4392 92.8555 32.3182 92.3782 32.3182C91.881 32.3182 91.4667 32.4458 91.1353 32.701C90.8072 32.9529 90.5603 33.2959 90.3945 33.7301C90.2321 34.161 90.1509 34.6449 90.1509 35.1818C90.1509 35.7254 90.2338 36.2192 90.3995 36.6634C90.5685 37.1042 90.8171 37.4555 91.1452 37.7173C91.4767 37.9759 91.8877 38.1051 92.3782 38.1051ZM102.724 41.8636C102.525 41.8636 102.348 41.8471 102.192 41.8139C102.036 41.7841 101.929 41.7543 101.869 41.7244L102.167 40.6903C102.452 40.7633 102.704 40.7898 102.923 40.7699C103.142 40.75 103.336 40.6522 103.505 40.4766C103.677 40.3042 103.834 40.0241 103.977 39.6364L104.196 39.0398L101.372 31.3636H102.645L104.752 37.4489H104.832L106.94 31.3636H108.213L104.971 40.1136C104.825 40.508 104.645 40.8345 104.429 41.093C104.214 41.3549 103.964 41.5488 103.679 41.6747C103.397 41.8007 103.079 41.8636 102.724 41.8636ZM112.59 39.1591C111.901 39.1591 111.296 38.995 110.776 38.6669C110.259 38.3388 109.854 37.8797 109.562 37.2898C109.274 36.6998 109.13 36.0104 109.13 35.2216C109.13 34.4261 109.274 33.7318 109.562 33.1385C109.854 32.5452 110.259 32.0845 110.776 31.7564C111.296 31.4283 111.901 31.2642 112.59 31.2642C113.28 31.2642 113.883 31.4283 114.4 31.7564C114.92 32.0845 115.325 32.5452 115.613 33.1385C115.905 33.7318 116.05 34.4261 116.05 35.2216C116.05 36.0104 115.905 36.6998 115.613 37.2898C115.325 37.8797 114.92 38.3388 114.4 38.6669C113.883 38.995 113.28 39.1591 112.59 39.1591ZM112.59 38.1051C113.114 38.1051 113.545 37.9709 113.883 37.7024C114.221 37.4339 114.471 37.081 114.634 36.6435C114.796 36.206 114.877 35.732 114.877 35.2216C114.877 34.7112 114.796 34.2356 114.634 33.7947C114.471 33.3539 114.221 32.9976 113.883 32.7259C113.545 32.4541 113.114 32.3182 112.59 32.3182C112.067 32.3182 111.636 32.4541 111.298 32.7259C110.96 32.9976 110.709 33.3539 110.547 33.7947C110.384 34.2356 110.303 34.7112 110.303 35.2216C110.303 35.732 110.384 36.206 110.547 36.6435C110.709 37.081 110.96 37.4339 111.298 37.7024C111.636 37.9709 112.067 38.1051 112.59 38.1051ZM122.654 35.8778V31.3636H123.827V39H122.654V37.7074H122.574C122.395 38.0952 122.117 38.425 121.739 38.6967C121.361 38.9652 120.884 39.0994 120.307 39.0994C119.83 39.0994 119.406 38.995 119.035 38.7862C118.663 38.5741 118.372 38.2559 118.16 37.8317C117.948 37.4041 117.841 36.8655 117.841 36.2159V31.3636H119.015V36.1364C119.015 36.6932 119.171 37.1373 119.482 37.4688C119.797 37.8002 120.198 37.9659 120.685 37.9659C120.977 37.9659 121.273 37.8913 121.575 37.7422C121.88 37.593 122.135 37.3643 122.341 37.0561C122.55 36.7479 122.654 36.3551 122.654 35.8778ZM125.976 39V31.3636H127.11V32.517H127.189C127.328 32.1392 127.58 31.8326 127.945 31.5973C128.31 31.362 128.721 31.2443 129.178 31.2443C129.264 31.2443 129.372 31.246 129.501 31.2493C129.63 31.2526 129.728 31.2576 129.794 31.2642V32.4574C129.755 32.4474 129.663 32.4325 129.521 32.4126C129.382 32.3894 129.234 32.3778 129.078 32.3778C128.707 32.3778 128.376 32.4557 128.084 32.6115C127.796 32.764 127.567 32.9761 127.398 33.2479C127.232 33.5163 127.15 33.8229 127.15 34.1676V39H125.976ZM134.725 29.9119V28.8182H142.361V29.9119H139.16V39H137.927V29.9119H134.725ZM146.199 39.1591C145.464 39.1591 144.829 38.9967 144.295 38.6719C143.765 38.3438 143.356 37.8864 143.067 37.2997C142.782 36.7098 142.64 36.0237 142.64 35.2415C142.64 34.4593 142.782 33.7699 143.067 33.1733C143.356 32.5734 143.757 32.1061 144.27 31.7713C144.787 31.4332 145.391 31.2642 146.08 31.2642C146.478 31.2642 146.871 31.3305 147.258 31.4631C147.646 31.5956 147.999 31.8111 148.317 32.1094C148.635 32.4044 148.889 32.7955 149.078 33.2827C149.267 33.7699 149.361 34.3698 149.361 35.0824V35.5795H143.475V34.5653H148.168C148.168 34.1345 148.082 33.75 147.91 33.4119C147.741 33.0739 147.499 32.8071 147.184 32.6115C146.872 32.416 146.504 32.3182 146.08 32.3182C145.613 32.3182 145.208 32.4342 144.867 32.6662C144.529 32.8949 144.269 33.1932 144.086 33.5611C143.904 33.929 143.813 34.3234 143.813 34.7443V35.4205C143.813 35.9972 143.912 36.486 144.111 36.8871C144.314 37.2848 144.594 37.5881 144.952 37.7969C145.309 38.0024 145.725 38.1051 146.199 38.1051C146.508 38.1051 146.786 38.062 147.035 37.9759C147.287 37.8864 147.504 37.7538 147.686 37.5781C147.868 37.3991 148.009 37.1771 148.108 36.9119L149.242 37.2301C149.123 37.6146 148.922 37.9527 148.64 38.2443C148.359 38.5327 148.011 38.758 147.596 38.9205C147.182 39.0795 146.716 39.1591 146.199 39.1591ZM153.393 39.179C152.909 39.179 152.47 39.0878 152.076 38.9055C151.681 38.7199 151.368 38.4531 151.136 38.1051C150.904 37.7538 150.788 37.3295 150.788 36.8324C150.788 36.3949 150.874 36.0402 151.047 35.7685C151.219 35.4934 151.449 35.2779 151.738 35.1222C152.026 34.9664 152.344 34.8504 152.692 34.7741C153.044 34.6946 153.397 34.6316 153.751 34.5852C154.215 34.5256 154.591 34.4808 154.88 34.451C155.171 34.4179 155.384 34.3632 155.516 34.2869C155.652 34.2107 155.72 34.0781 155.72 33.8892V33.8494C155.72 33.3589 155.586 32.9777 155.317 32.706C155.052 32.4342 154.649 32.2983 154.109 32.2983C153.549 32.2983 153.11 32.4209 152.792 32.6662C152.474 32.9115 152.25 33.1733 152.121 33.4517L151.007 33.054C151.206 32.59 151.471 32.2287 151.802 31.9702C152.137 31.7083 152.502 31.526 152.896 31.4233C153.294 31.3172 153.685 31.2642 154.069 31.2642C154.315 31.2642 154.596 31.294 154.915 31.3537C155.236 31.41 155.546 31.5277 155.844 31.7067C156.146 31.8857 156.396 32.1558 156.595 32.517C156.794 32.8783 156.893 33.3622 156.893 33.9688V39H155.72V37.9659H155.66C155.581 38.1316 155.448 38.3089 155.263 38.4979C155.077 38.6868 154.83 38.8475 154.522 38.9801C154.214 39.1127 153.837 39.179 153.393 39.179ZM153.572 38.125C154.036 38.125 154.427 38.0339 154.746 37.8516C155.067 37.6693 155.309 37.4339 155.471 37.1456C155.637 36.8572 155.72 36.554 155.72 36.2358V35.1619C155.67 35.2216 155.561 35.2763 155.392 35.326C155.226 35.3724 155.034 35.4138 154.815 35.4503C154.6 35.4834 154.389 35.5133 154.184 35.5398C153.982 35.563 153.818 35.5829 153.692 35.5994C153.387 35.6392 153.102 35.7038 152.836 35.7933C152.575 35.8795 152.363 36.0104 152.2 36.1861C152.041 36.3584 151.961 36.5937 151.961 36.892C151.961 37.2997 152.112 37.608 152.414 37.8168C152.719 38.0223 153.105 38.125 153.572 38.125ZM162.137 39.1591C161.421 39.1591 160.805 38.9901 160.288 38.652C159.771 38.3139 159.373 37.8482 159.094 37.255C158.816 36.6617 158.677 35.9839 158.677 35.2216C158.677 34.446 158.819 33.7616 159.104 33.1683C159.393 32.5717 159.794 32.1061 160.308 31.7713C160.825 31.4332 161.428 31.2642 162.117 31.2642C162.654 31.2642 163.138 31.3636 163.569 31.5625C164 31.7614 164.353 32.0398 164.628 32.3977C164.903 32.7557 165.074 33.1733 165.14 33.6506H163.967C163.877 33.3026 163.678 32.9943 163.37 32.7259C163.065 32.4541 162.654 32.3182 162.137 32.3182C161.68 32.3182 161.279 32.4375 160.934 32.6761C160.593 32.9115 160.326 33.2446 160.134 33.6754C159.945 34.103 159.85 34.6051 159.85 35.1818C159.85 35.7718 159.943 36.2855 160.129 36.723C160.317 37.1605 160.583 37.5002 160.924 37.7422C161.269 37.9841 161.673 38.1051 162.137 38.1051C162.442 38.1051 162.719 38.0521 162.967 37.946C163.216 37.84 163.426 37.6875 163.599 37.4886C163.771 37.2898 163.894 37.0511 163.967 36.7727H165.14C165.074 37.2235 164.91 37.6295 164.648 37.9908C164.389 38.3487 164.046 38.6338 163.619 38.8459C163.194 39.0547 162.701 39.1591 162.137 39.1591ZM168.028 34.4062V39H166.855V28.8182H168.028V32.5568H168.128C168.307 32.1624 168.575 31.8492 168.933 31.6172C169.295 31.3819 169.775 31.2642 170.375 31.2642C170.895 31.2642 171.351 31.3686 171.742 31.5774C172.133 31.7829 172.437 32.0994 172.652 32.527C172.871 32.9512 172.98 33.4915 172.98 34.1477V39H171.807V34.2273C171.807 33.6207 171.649 33.1518 171.335 32.8203C171.023 32.4856 170.59 32.3182 170.037 32.3182C169.652 32.3182 169.308 32.3994 169.003 32.5618C168.701 32.7242 168.463 32.9612 168.287 33.2727C168.115 33.5843 168.028 33.9621 168.028 34.4062ZM178.328 39.1591C177.593 39.1591 176.958 38.9967 176.424 38.6719C175.894 38.3438 175.485 37.8864 175.196 37.2997C174.911 36.7098 174.769 36.0237 174.769 35.2415C174.769 34.4593 174.911 33.7699 175.196 33.1733C175.485 32.5734 175.886 32.1061 176.399 31.7713C176.916 31.4332 177.52 31.2642 178.209 31.2642C178.607 31.2642 178.999 31.3305 179.387 31.4631C179.775 31.5956 180.128 31.8111 180.446 32.1094C180.764 32.4044 181.018 32.7955 181.207 33.2827C181.396 33.7699 181.49 34.3698 181.49 35.0824V35.5795H175.604V34.5653H180.297C180.297 34.1345 180.211 33.75 180.039 33.4119C179.869 33.0739 179.628 32.8071 179.313 32.6115C179.001 32.416 178.633 32.3182 178.209 32.3182C177.742 32.3182 177.337 32.4342 176.996 32.6662C176.658 32.8949 176.398 33.1932 176.215 33.5611C176.033 33.929 175.942 34.3234 175.942 34.7443V35.4205C175.942 35.9972 176.041 36.486 176.24 36.8871C176.442 37.2848 176.722 37.5881 177.08 37.7969C177.438 38.0024 177.854 38.1051 178.328 38.1051C178.637 38.1051 178.915 38.062 179.164 37.9759C179.415 37.8864 179.633 37.7538 179.815 37.5781C179.997 37.3991 180.138 37.1771 180.237 36.9119L181.371 37.2301C181.252 37.6146 181.051 37.9527 180.769 38.2443C180.488 38.5327 180.14 38.758 179.725 38.9205C179.311 39.0795 178.845 39.1591 178.328 39.1591ZM183.275 39V31.3636H184.409V32.517H184.488C184.627 32.1392 184.879 31.8326 185.244 31.5973C185.608 31.362 186.019 31.2443 186.477 31.2443C186.563 31.2443 186.671 31.246 186.8 31.2493C186.929 31.2526 187.027 31.2576 187.093 31.2642V32.4574C187.053 32.4474 186.962 32.4325 186.82 32.4126C186.681 32.3894 186.533 32.3778 186.377 32.3778C186.006 32.3778 185.675 32.4557 185.383 32.6115C185.095 32.764 184.866 32.9761 184.697 33.2479C184.531 33.5163 184.448 33.8229 184.448 34.1676V39H183.275Z" fill="#98A2B3"/>
<path d="M48.517 26V8.54545H55.4034C56.7216 8.54545 57.8466 8.78125 58.7784 9.25284C59.7159 9.71875 60.429 10.3807 60.9176 11.2386C61.4119 12.0909 61.6591 13.0937 61.6591 14.2472C61.6591 15.4062 61.4091 16.4034 60.9091 17.2386C60.4091 18.0682 59.6847 18.7045 58.7358 19.1477C57.7926 19.5909 56.6506 19.8125 55.3097 19.8125H50.6989V16.8466H54.7131C55.4176 16.8466 56.0028 16.75 56.4688 16.5568C56.9347 16.3636 57.2813 16.0739 57.5085 15.6875C57.7415 15.3011 57.858 14.821 57.858 14.2472C57.858 13.6676 57.7415 13.179 57.5085 12.7812C57.2813 12.3835 56.9318 12.0824 56.4602 11.8778C55.9943 11.6676 55.4063 11.5625 54.696 11.5625H52.2074V26H48.517ZM57.9432 18.0568L62.2812 26H58.2074L53.9631 18.0568H57.9432ZM62.5178 8.54545H66.6513L70.6314 16.0625H70.8018L74.782 8.54545H78.9155L72.549 19.8295V26H68.8842V19.8295L62.5178 8.54545ZM81.3679 11.5881V8.54545H95.7031V11.5881H90.3594V26H86.7116V11.5881H81.3679Z" fill="#6938EF"/>
<defs>
<clipPath id="clip0_10325_385">
<rect width="39" height="39" fill="white" transform="translate(0 2.5)"/>
</clipPath>
</defs>
</svg>
