<svg width="21" height="20" viewBox="0 0 21 20" fill="none" xmlns="http://www.w3.org/2000/svg">
<path d="M1.93982 14.0008L2.83529 13.5557L1.93982 14.0008ZM1.00463 19L0.0814866 18.6155C-0.0470463 18.9242 -0.0128462 19.2766 0.172627 19.5548C0.358099 19.8329 0.670307 20 1.00463 20V19ZM6 9C5.44772 9 5 9.44771 5 10C5 10.5523 5.44772 11 6 11V9ZM6.01 11C6.56228 11 7.01 10.5523 7.01 10C7.01 9.44771 6.56228 9 6.01 9V11ZM10 9C9.44771 9 9 9.44771 9 10C9 10.5523 9.44771 11 10 11V9ZM10.01 11C10.5623 11 11.01 10.5523 11.01 10C11.01 9.44771 10.5623 9 10.01 9V11ZM14 9C13.4477 9 13 9.44771 13 10C13 10.5523 13.4477 11 14 11V9ZM14.01 11C14.5623 11 15.01 10.5523 15.01 10C15.01 9.44771 14.5623 9 14.01 9V11ZM18.0039 10C18.0039 14.4183 14.4222 18 10.0039 18V20C15.5267 20 20.0039 15.5228 20.0039 10H18.0039ZM2.00391 10C2.00391 5.58172 5.58562 2 10.0039 2V0C4.48105 0 0.00390625 4.47715 0.00390625 10H2.00391ZM10.0039 2C14.4222 2 18.0039 5.58172 18.0039 10H20.0039C20.0039 4.47715 15.5267 0 10.0039 0V2ZM2.83529 13.5557C2.30344 12.4857 2.00391 11.2793 2.00391 10H0.00390625C0.00390625 11.595 0.378078 13.1055 1.04435 14.4459L2.83529 13.5557ZM10.0039 18C9.99992 18 9.99593 18 9.99191 18C9.9879 18 9.98387 18 9.97981 18C9.97576 18 9.97169 18 9.9676 18C9.96351 18 9.9594 18 9.95528 18C9.95115 18 9.94701 18 9.94284 18C9.93868 18 9.9345 18 9.9303 18C9.9261 18 9.92188 18 9.91765 18C9.91341 18 9.90916 18 9.90488 18C9.90061 18 9.89632 18 9.89201 18C9.8877 18 9.88338 18 9.87903 18C9.87469 18 9.87033 18 9.86595 18C9.86157 18 9.85717 18 9.85275 18C9.84834 18 9.8439 18 9.83945 18C9.835 18 9.83053 18 9.82605 18C9.82156 18 9.81706 18 9.81254 18C9.80801 18 9.80348 18 9.79892 18C9.79436 18 9.78979 18 9.7852 18C9.78061 18 9.776 18 9.77138 18C9.76675 18 9.76211 18 9.75745 18C9.75279 18 9.74811 18 9.74342 18C9.73872 18 9.73401 18 9.72929 18C9.72456 18 9.71981 18 9.71505 18C9.71029 18 9.70551 18 9.70072 18C9.69592 18 9.69111 18 9.68628 18C9.68145 18 9.67661 18 9.67175 18C9.66689 18 9.66201 18 9.65711 18C9.65222 18 9.64731 18 9.64238 18C9.63745 18 9.63251 18 9.62755 18C9.62259 18 9.61761 18 9.61262 18C9.60763 18 9.60262 18 9.59759 18C9.59257 18 9.58752 18 9.58247 18C9.57741 18 9.57234 18 9.56725 18C9.56216 18 9.55705 18 9.55193 18C9.54681 18 9.54167 18 9.53652 18C9.53137 18 9.5262 18 9.52101 18C9.51583 18 9.51063 18 9.50541 18C9.5002 18 9.49497 18 9.48972 18C9.48447 18 9.47921 18 9.47393 18C9.46866 18 9.46336 18 9.45805 18C9.45275 18 9.44742 18 9.44208 18C9.43674 18 9.43139 18 9.42602 18C9.42065 18 9.41527 18 9.40987 18C9.40447 18 9.39905 18 9.39362 18C9.38819 18 9.38275 18 9.37729 18C9.37183 18 9.36635 18 9.36086 18C9.35538 18 9.34987 18 9.34435 18C9.33883 18 9.3333 18 9.32775 18C9.3222 18 9.31664 18 9.31106 18C9.30549 18 9.29989 18 9.29429 18C9.28868 18 9.28306 18 9.27742 18C9.27179 18 9.26614 18 9.26048 18C9.25481 18 9.24913 18 9.24344 18C9.23775 18 9.23204 18 9.22632 18C9.2206 18 9.21487 18 9.20912 18C9.20337 18 9.19761 18 9.19183 18C9.18605 18 9.18026 18 9.17446 18C9.16866 18 9.16284 18 9.157 18C9.15117 18 9.14533 18 9.13947 18C9.13361 18 9.12774 18 9.12185 18C9.11596 18 9.11006 18 9.10415 18C9.09824 18 9.09231 18 9.08637 18C9.08043 18 9.07447 18 9.06851 18C9.06254 18 9.05656 18 9.05056 18C9.04457 18 9.03856 18 9.03254 18C9.02652 18 9.02049 18 9.01444 18C9.0084 18 9.00234 18 8.99627 18C8.99019 18 8.98411 18 8.97801 18C8.97191 18 8.9658 18 8.95968 18C8.95356 18 8.94742 18 8.94127 18C8.93512 18 8.92896 18 8.92279 18C8.91661 18 8.91042 18 8.90422 18C8.89803 18 8.89181 18 8.88559 18C8.87936 18 8.87313 18 8.86688 18C8.86063 18 8.85437 18 8.84809 18C8.84182 18 8.83554 18 8.82924 18C8.82294 18 8.81663 18 8.81031 18C8.80398 18 8.79765 18 8.7913 18C8.78496 18 8.7786 18 8.77223 18C8.76586 18 8.75948 18 8.75308 18C8.74669 18 8.74028 18 8.73387 18C8.72745 18 8.72102 18 8.71458 18C8.70814 18 8.70169 18 8.69522 18C8.68876 18 8.68228 18 8.6758 18C8.66931 18 8.66281 18 8.6563 18C8.64979 18 8.64327 18 8.63674 18C8.63021 18 8.62366 18 8.61711 18C8.61056 18 8.60399 18 8.59741 18C8.59084 18 8.58425 18 8.57765 18C8.57105 18 8.56444 18 8.55782 18C8.5512 18 8.54457 18 8.53792 18C8.53128 18 8.52463 18 8.51796 18C8.5113 18 8.50463 18 8.49794 18C8.49125 18 8.48456 18 8.47785 18C8.47114 18 8.46443 18 8.4577 18C8.45097 18 8.44423 18 8.43749 18C8.43074 18 8.42398 18 8.41721 18C8.41044 18 8.40366 18 8.39687 18C8.39008 18 8.38328 18 8.37647 18C8.36966 18 8.36284 18 8.35601 18C8.34918 18 8.34234 18 8.33549 18C8.32864 18 8.32178 18 8.31491 18C8.30804 18 8.30116 18 8.29427 18C8.28738 18 8.28048 18 8.27357 18C8.26666 18 8.25975 18 8.25282 18C8.24589 18 8.23895 18 8.232 18C8.22506 18 8.2181 18 8.21113 18C8.20417 18 8.19719 18 8.19021 18C8.18322 18 8.17623 18 8.16922 18C8.16222 18 8.15521 18 8.14819 18C8.14117 18 8.13413 18 8.12709 18C8.12005 18 8.11301 18 8.10595 18C8.09889 18 8.09182 18 8.08475 18C8.07767 18 8.07059 18 8.06349 18C8.0564 18 8.0493 18 8.04219 18C8.03508 18 8.02796 18 8.02083 18C8.0137 18 8.00656 18 7.99942 18C7.99227 18 7.98512 18 7.97796 18C7.97079 18 7.96362 18 7.95644 18C7.94926 18 7.94208 18 7.93488 18C7.92769 18 7.92048 18 7.91327 18C7.90606 18 7.89884 18 7.89161 18C7.88438 18 7.87714 18 7.8699 18C7.86266 18 7.8554 18 7.84814 18C7.84088 18 7.83361 18 7.82634 18C7.81906 18 7.81178 18 7.80449 18C7.7972 18 7.7899 18 7.78259 18C7.77528 18 7.76797 18 7.76065 18C7.75332 18 7.74599 18 7.73866 18C7.73132 18 7.72398 18 7.71662 18C7.70927 18 7.70191 18 7.69455 18C7.68718 18 7.67981 18 7.67243 18C7.66504 18 7.65766 18 7.65026 18C7.64287 18 7.63546 18 7.62805 18C7.62065 18 7.61323 18 7.60581 18C7.59838 18 7.59095 18 7.58351 18C7.57608 18 7.56863 18 7.56118 18C7.55373 18 7.54628 18 7.53881 18C7.53135 18 7.52388 18 7.5164 18C7.50892 18 7.50144 18 7.49395 18C7.48646 18 7.47896 18 7.47146 18C7.46395 18 7.45645 18 7.44893 18C7.44141 18 7.43389 18 7.42636 18C7.41883 18 7.4113 18 7.40376 18C7.39622 18 7.38867 18 7.38112 18C7.37357 18 7.36601 18 7.35844 18C7.35088 18 7.34331 18 7.33573 18C7.32815 18 7.32057 18 7.31298 18C7.30539 18 7.2978 18 7.2902 18C7.2826 18 7.27499 18 7.26738 18C7.25977 18 7.25216 18 7.24453 18C7.23691 18 7.22928 18 7.22165 18C7.21402 18 7.20638 18 7.19874 18C7.19109 18 7.18344 18 7.17579 18C7.16813 18 7.16047 18 7.15281 18C7.14514 18 7.13748 18 7.1298 18C7.12213 18 7.11444 18 7.10676 18C7.09907 18 7.09138 18 7.08369 18C7.07599 18 7.0683 18 7.06059 18C7.05289 18 7.04518 18 7.03746 18C7.02975 18 7.02203 18 7.01431 18C7.00658 18 6.99886 18 6.99112 18C6.98339 18 6.97565 18 6.96791 18C6.96017 18 6.95242 18 6.94467 18C6.93692 18 6.92917 18 6.92141 18C6.91365 18 6.90589 18 6.89812 18C6.89035 18 6.88258 18 6.87481 18C6.86703 18 6.85925 18 6.85147 18C6.84368 18 6.8359 18 6.8281 18C6.82031 18 6.81252 18 6.80472 18C6.79692 18 6.78911 18 6.78131 18C6.7735 18 6.76569 18 6.75788 18C6.75006 18 6.74224 18 6.73442 18C6.7266 18 6.71878 18 6.71095 18C6.70312 18 6.69529 18 6.68745 18C6.67962 18 6.67178 18 6.66393 18C6.65609 18 6.64825 18 6.6404 18C6.63255 18 6.6247 18 6.61684 18C6.60899 18 6.60113 18 6.59327 18C6.58541 18 6.57754 18 6.56968 18C6.56181 18 6.55394 18 6.54607 18C6.5382 18 6.53032 18 6.52244 18C6.51456 18 6.50668 18 6.4988 18C6.49091 18 6.48303 18 6.47514 18C6.46725 18 6.45936 18 6.45146 18C6.44357 18 6.43567 18 6.42777 18C6.41988 18 6.41197 18 6.40407 18C6.39617 18 6.38826 18 6.38035 18C6.37244 18 6.36453 18 6.35662 18C6.34871 18 6.34079 18 6.33288 18C6.32496 18 6.31704 18 6.30912 18C6.3012 18 6.29328 18 6.28535 18C6.27743 18 6.2695 18 6.26157 18C6.25364 18 6.24571 18 6.23778 18C6.22985 18 6.22192 18 6.21398 18C6.20605 18 6.19811 18 6.19017 18C6.18223 18 6.17429 18 6.16635 18C6.15841 18 6.15047 18 6.14252 18C6.13458 18 6.12663 18 6.11869 18C6.11074 18 6.10279 18 6.09484 18C6.0869 18 6.07895 18 6.07099 18C6.06304 18 6.05509 18 6.04714 18C6.03918 18 6.03123 18 6.02327 18C6.01532 18 6.00736 18 5.99941 18C5.99145 18 5.98349 18 5.97553 18C5.96757 18 5.95962 18 5.95166 18C5.9437 18 5.93574 18 5.92777 18C5.91981 18 5.91185 18 5.90389 18C5.89593 18 5.88797 18 5.88 18C5.87204 18 5.86408 18 5.85611 18C5.84815 18 5.84019 18 5.83222 18C5.82426 18 5.81629 18 5.80833 18C5.80037 18 5.7924 18 5.78444 18C5.77647 18 5.76851 18 5.76054 18C5.75258 18 5.74462 18 5.73665 18C5.72869 18 5.72072 18 5.71276 18C5.7048 18 5.69683 18 5.68887 18C5.68091 18 5.67294 18 5.66498 18C5.65702 18 5.64906 18 5.6411 18C5.63314 18 5.62517 18 5.61721 18C5.60925 18 5.60129 18 5.59334 18C5.58538 18 5.57742 18 5.56946 18C5.5615 18 5.55355 18 5.54559 18C5.53764 18 5.52968 18 5.52173 18C5.51377 18 5.50582 18 5.49787 18C5.48992 18 5.48197 18 5.47402 18C5.46607 18 5.45812 18 5.45017 18C5.44222 18 5.43428 18 5.42633 18C5.41839 18 5.41044 18 5.4025 18C5.39456 18 5.38662 18 5.37868 18C5.37074 18 5.3628 18 5.35487 18C5.34693 18 5.339 18 5.33106 18C5.32313 18 5.3152 18 5.30727 18C5.29934 18 5.29141 18 5.28349 18C5.27556 18 5.26764 18 5.25972 18C5.25179 18 5.24387 18 5.23596 18C5.22804 18 5.22012 18 5.21221 18C5.20429 18 5.19638 18 5.18847 18C5.18056 18 5.17265 18 5.16475 18C5.15684 18 5.14894 18 5.14104 18C5.13314 18 5.12524 18 5.11735 18C5.10945 18 5.10156 18 5.09367 18C5.08578 18 5.07789 18 5.07 18C5.06212 18 5.05424 18 5.04636 18C5.03848 18 5.0306 18 5.02272 18C5.01485 18 5.00698 18 4.99911 18C4.99124 18 4.98337 18 4.97551 18C4.96765 18 4.95979 18 4.95193 18C4.94407 18 4.93622 18 4.92837 18C4.92052 18 4.91267 18 4.90483 18C4.89698 18 4.88914 18 4.88131 18C4.87347 18 4.86564 18 4.8578 18C4.84997 18 4.84215 18 4.83432 18C4.8265 18 4.81868 18 4.81086 18C4.80305 18 4.79523 18 4.78742 18C4.77961 18 4.77181 18 4.76401 18C4.75621 18 4.74841 18 4.74061 18C4.73282 18 4.72503 18 4.71724 18C4.70946 18 4.70168 18 4.6939 18C4.68612 18 4.67834 18 4.67058 18C4.66281 18 4.65504 18 4.64728 18C4.63952 18 4.63176 18 4.62401 18C4.61625 18 4.6085 18 4.60076 18C4.59302 18 4.58528 18 4.57754 18C4.56981 18 4.56207 18 4.55435 18C4.54662 18 4.5389 18 4.53118 18C4.52347 18 4.51575 18 4.50805 18C4.50034 18 4.49264 18 4.48494 18C4.47724 18 4.46955 18 4.46186 18C4.45417 18 4.44649 18 4.43881 18C4.43113 18 4.42346 18 4.41579 18C4.40812 18 4.40046 18 4.3928 18C4.38515 18 4.37749 18 4.36985 18C4.3622 18 4.35456 18 4.34692 18C4.33929 18 4.33165 18 4.32403 18C4.3164 18 4.30878 18 4.30117 18C4.29355 18 4.28595 18 4.27834 18C4.27074 18 4.26314 18 4.25555 18C4.24796 18 4.24037 18 4.23279 18C4.22521 18 4.21764 18 4.21007 18C4.2025 18 4.19494 18 4.18738 18C4.17982 18 4.17227 18 4.16473 18C4.15719 18 4.14965 18 4.14211 18C4.13458 18 4.12706 18 4.11954 18C4.11202 18 4.1045 18 4.097 18C4.08949 18 4.08199 18 4.07449 18C4.067 18 4.05951 18 4.05203 18C4.04455 18 4.03708 18 4.02961 18C4.02214 18 4.01468 18 4.00722 18C3.99977 18 3.99232 18 3.98488 18C3.97744 18 3.97 18 3.96258 18C3.95515 18 3.94773 18 3.94031 18C3.9329 18 3.92549 18 3.91809 18C3.9107 18 3.9033 18 3.89592 18C3.88853 18 3.88115 18 3.87378 18C3.86641 18 3.85905 18 3.85169 18C3.84434 18 3.83699 18 3.82965 18C3.8223 18 3.81497 18 3.80764 18C3.80032 18 3.793 18 3.78569 18C3.77837 18 3.77107 18 3.76377 18C3.75648 18 3.74919 18 3.74191 18C3.73463 18 3.72736 18 3.72009 18C3.71283 18 3.70557 18 3.69832 18C3.69107 18 3.68383 18 3.67659 18C3.66936 18 3.66214 18 3.65492 18C3.6477 18 3.64049 18 3.63329 18C3.62609 18 3.6189 18 3.61172 18C3.60453 18 3.59736 18 3.59019 18C3.58302 18 3.57586 18 3.56871 18C3.56156 18 3.55442 18 3.54729 18C3.54015 18 3.53303 18 3.52591 18C3.51879 18 3.51169 18 3.50459 18C3.49749 18 3.4904 18 3.48332 18C3.47624 18 3.46916 18 3.4621 18C3.45504 18 3.44798 18 3.44094 18C3.43389 18 3.42686 18 3.41983 18C3.4128 18 3.40578 18 3.39877 18C3.39176 18 3.38477 18 3.37777 18C3.37078 18 3.3638 18 3.35683 18C3.34986 18 3.3429 18 3.33594 18C3.32899 18 3.32205 18 3.31511 18C3.30818 18 3.30125 18 3.29434 18C3.28742 18 3.28052 18 3.27362 18C3.26673 18 3.25984 18 3.25297 18C3.24609 18 3.23923 18 3.23237 18C3.22551 18 3.21867 18 3.21183 18C3.20499 18 3.19817 18 3.19135 18C3.18454 18 3.17773 18 3.17093 18C3.16414 18 3.15735 18 3.15058 18C3.1438 18 3.13704 18 3.13028 18C3.12353 18 3.11678 18 3.11005 18C3.10331 18 3.09659 18 3.08988 18C3.08316 18 3.07646 18 3.06977 18C3.06308 18 3.0564 18 3.04972 18C3.04305 18 3.03639 18 3.02974 18C3.0231 18 3.01646 18 3.00983 18C3.0032 18 2.99659 18 2.98998 18C2.98337 18 2.97678 18 2.9702 18C2.96361 18 2.95704 18 2.95048 18C2.94392 18 2.93737 18 2.93083 18C2.92429 18 2.91776 18 2.91124 18C2.90473 18 2.89822 18 2.89173 18C2.88524 18 2.87875 18 2.87228 18C2.86581 18 2.85935 18 2.85291 18C2.84646 18 2.84002 18 2.8336 18C2.82717 18 2.82076 18 2.81436 18C2.80796 18 2.80157 18 2.79519 18C2.78881 18 2.78245 18 2.77609 18C2.76974 18 2.7634 18 2.75707 18C2.75074 18 2.74442 18 2.73812 18C2.73181 18 2.72552 18 2.71924 18C2.71296 18 2.70669 18 2.70043 18C2.69417 18 2.68793 18 2.6817 18C2.67547 18 2.66925 18 2.66304 18C2.65683 18 2.65064 18 2.64446 18C2.63827 18 2.63211 18 2.62595 18C2.61979 18 2.61365 18 2.60752 18C2.60138 18 2.59527 18 2.58916 18C2.58305 18 2.57696 18 2.57088 18C2.5648 18 2.55873 18 2.55268 18C2.54663 18 2.54059 18 2.53456 18C2.52853 18 2.52251 18 2.51651 18C2.51051 18 2.50452 18 2.49855 18C2.49257 18 2.48661 18 2.48066 18C2.47471 18 2.46878 18 2.46286 18C2.45693 18 2.45103 18 2.44513 18C2.43924 18 2.43335 18 2.42749 18C2.42162 18 2.41576 18 2.40992 18C2.40408 18 2.39826 18 2.39244 18C2.38663 18 2.38083 18 2.37505 18C2.36926 18 2.36349 18 2.35773 18C2.35198 18 2.34623 18 2.3405 18C2.33478 18 2.32906 18 2.32336 18C2.31766 18 2.31197 18 2.3063 18C2.30063 18 2.29497 18 2.28932 18C2.28368 18 2.27805 18 2.27244 18C2.26682 18 2.26122 18 2.25563 18C2.25005 18 2.24448 18 2.23892 18C2.23336 18 2.22782 18 2.22229 18C2.21676 18 2.21125 18 2.20575 18C2.20025 18 2.19477 18 2.1893 18C2.18383 18 2.17838 18 2.17294 18C2.1675 18 2.16208 18 2.15667 18C2.15126 18 2.14587 18 2.14049 18C2.13511 18 2.12974 18 2.1244 18C2.11905 18 2.11371 18 2.1084 18C2.10308 18 2.09778 18 2.09249 18C2.0872 18 2.08193 18 2.07667 18C2.07142 18 2.06618 18 2.06095 18C2.05573 18 2.05052 18 2.04532 18C2.04013 18 2.03495 18 2.02979 18C2.02463 18 2.01948 18 2.01435 18C2.00922 18 2.0041 18 1.999 18C1.99391 18 1.98882 18 1.98375 18C1.97869 18 1.97364 18 1.9686 18C1.96357 18 1.95855 18 1.95354 18C1.94854 18 1.94356 18 1.93859 18C1.93362 18 1.92866 18 1.92372 18C1.91879 18 1.91386 18 1.90896 18C1.90406 18 1.89917 18 1.8943 18C1.88942 18 1.88457 18 1.87973 18C1.87489 18 1.87007 18 1.86526 18C1.86046 18 1.85567 18 1.8509 18C1.84613 18 1.84137 18 1.83663 18C1.8319 18 1.82718 18 1.82247 18C1.81777 18 1.81308 18 1.80841 18C1.80374 18 1.79909 18 1.79445 18C1.78982 18 1.7852 18 1.7806 18C1.776 18 1.77141 18 1.76685 18C1.76228 18 1.75773 18 1.7532 18C1.74867 18 1.74415 18 1.73965 18C1.73516 18 1.73068 18 1.72622 18C1.72175 18 1.71731 18 1.71288 18C1.70846 18 1.70405 18 1.69966 18C1.69527 18 1.69089 18 1.68654 18C1.68218 18 1.67785 18 1.67353 18C1.66921 18 1.66491 18 1.66062 18C1.65634 18 1.65207 18 1.64783 18C1.64358 18 1.63935 18 1.63514 18C1.63093 18 1.62674 18 1.62256 18C1.61839 18 1.61423 18 1.61009 18C1.60596 18 1.60184 18 1.59774 18C1.59364 18 1.58955 18 1.58549 18C1.58143 18 1.57738 18 1.57336 18C1.56933 18 1.56532 18 1.56133 18C1.55734 18 1.55337 18 1.54942 18C1.54547 18 1.54154 18 1.53763 18C1.53371 18 1.52982 18 1.52594 18C1.52207 18 1.51821 18 1.51437 18C1.51054 18 1.50672 18 1.50292 18C1.49912 18 1.49534 18 1.49158 18C1.48782 18 1.48408 18 1.48036 18C1.47664 18 1.47293 18 1.46925 18C1.46557 18 1.4619 18 1.45826 18C1.45462 18 1.45099 18 1.44739 18C1.44378 18 1.4402 18 1.43663 18C1.43307 18 1.42952 18 1.426 18C1.42247 18 1.41897 18 1.41548 18C1.41199 18 1.40853 18 1.40508 18C1.40164 18 1.39821 18 1.3948 18C1.3914 18 1.38801 18 1.38465 18C1.38128 18 1.37794 18 1.37461 18C1.37129 18 1.36798 18 1.3647 18C1.36141 18 1.35815 18 1.3549 18C1.35166 18 1.34844 18 1.34523 18C1.34203 18 1.33885 18 1.33569 18C1.33253 18 1.32938 18 1.32626 18C1.32314 18 1.32004 18 1.31697 18C1.31389 18 1.31083 18 1.30779 18C1.30476 18 1.30174 18 1.29874 18C1.29575 18 1.29277 18 1.28982 18C1.28687 18 1.28394 18 1.28103 18C1.27812 18 1.27523 18 1.27236 18C1.26949 18 1.26664 18 1.26382 18C1.26099 18 1.25818 18 1.2554 18C1.25262 18 1.24986 18 1.24712 18C1.24438 18 1.24166 18 1.23896 18C1.23626 18 1.23359 18 1.23093 18C1.22828 18 1.22565 18 1.22304 18C1.22043 18 1.21784 18 1.21527 18C1.21271 18 1.21016 18 1.20764 18C1.20512 18 1.20261 18 1.20014 18C1.19766 18 1.1952 18 1.19277 18C1.19033 18 1.18792 18 1.18553 18C1.18314 18 1.18077 18 1.17842 18C1.17608 18 1.17375 18 1.17145 18C1.16915 18 1.16687 18 1.16462 18C1.16236 18 1.16013 18 1.15792 18C1.15571 18 1.15352 18 1.15135 18C1.14919 18 1.14704 18 1.14492 18C1.1428 18 1.1407 18 1.13863 18C1.13655 18 1.1345 18 1.13247 18C1.13044 18 1.12844 18 1.12645 18C1.12447 18 1.12251 18 1.12057 18C1.11864 18 1.11672 18 1.11483 18C1.11294 18 1.11107 18 1.10923 18C1.10739 18 1.10556 18 1.10377 18C1.10197 18 1.10019 18 1.09844 18C1.09669 18 1.09497 18 1.09326 18C1.09156 18 1.08988 18 1.08822 18C1.08656 18 1.08493 18 1.08332 18C1.08171 18 1.08013 18 1.07857 18C1.077 18 1.07547 18 1.07395 18C1.07244 18 1.07095 18 1.06948 18C1.06802 18 1.06657 18 1.06516 18C1.06374 18 1.06234 18 1.06098 18C1.05961 18 1.05826 18 1.05694 18C1.05562 18 1.05432 18 1.05305 18C1.05177 18 1.05053 18 1.0493 18C1.04808 18 1.04688 18 1.0457 18C1.04453 18 1.04338 18 1.04225 18C1.04113 18 1.04003 18 1.03895 18C1.03787 18 1.03682 18 1.03579 18C1.03477 18 1.03376 18 1.03279 18C1.03181 18 1.03086 18 1.02993 18C1.029 18 1.0281 18 1.02722 18C1.02635 18 1.02549 18 1.02467 18C1.02384 18 1.02304 18 1.02226 18C1.02148 18 1.02073 18 1.02 18C1.01928 18 1.01858 18 1.0179 18C1.01723 18 1.01658 18 1.01595 18C1.01533 18 1.01473 18 1.01415 18C1.01358 18 1.01303 18 1.01251 18C1.01199 18 1.01149 18 1.01102 18C1.01055 18 1.0101 18 1.00968 18C1.00926 18 1.00887 18 1.0085 18C1.00814 18 1.00779 18 1.00748 18C1.00716 18 1.00687 18 1.00661 18C1.00635 18 1.00611 18 1.0059 18C1.00569 18 1.0055 18 1.00534 18C1.00519 18 1.00505 18 1.00495 18C1.00484 18 1.00476 18 1.00471 18C1.00466 18 1.00463 18 1.00463 19C1.00463 20 1.00466 20 1.00471 20C1.00476 20 1.00484 20 1.00495 20C1.00505 20 1.00519 20 1.00534 20C1.0055 20 1.00569 20 1.0059 20C1.00611 20 1.00635 20 1.00661 20C1.00687 20 1.00716 20 1.00748 20C1.00779 20 1.00814 20 1.0085 20C1.00887 20 1.00926 20 1.00968 20C1.0101 20 1.01055 20 1.01102 20C1.01149 20 1.01199 20 1.01251 20C1.01303 20 1.01358 20 1.01415 20C1.01473 20 1.01533 20 1.01595 20C1.01658 20 1.01723 20 1.0179 20C1.01858 20 1.01928 20 1.02 20C1.02073 20 1.02148 20 1.02226 20C1.02304 20 1.02384 20 1.02467 20C1.02549 20 1.02635 20 1.02722 20C1.0281 20 1.029 20 1.02993 20C1.03086 20 1.03181 20 1.03279 20C1.03376 20 1.03477 20 1.03579 20C1.03682 20 1.03787 20 1.03895 20C1.04003 20 1.04113 20 1.04225 20C1.04338 20 1.04453 20 1.0457 20C1.04688 20 1.04808 20 1.0493 20C1.05053 20 1.05177 20 1.05305 20C1.05432 20 1.05562 20 1.05694 20C1.05826 20 1.05961 20 1.06098 20C1.06234 20 1.06374 20 1.06516 20C1.06657 20 1.06802 20 1.06948 20C1.07095 20 1.07244 20 1.07395 20C1.07547 20 1.077 20 1.07857 20C1.08013 20 1.08171 20 1.08332 20C1.08493 20 1.08656 20 1.08822 20C1.08988 20 1.09156 20 1.09326 20C1.09497 20 1.09669 20 1.09844 20C1.10019 20 1.10197 20 1.10377 20C1.10556 20 1.10739 20 1.10923 20C1.11107 20 1.11294 20 1.11483 20C1.11672 20 1.11864 20 1.12057 20C1.12251 20 1.12447 20 1.12645 20C1.12844 20 1.13044 20 1.13247 20C1.1345 20 1.13655 20 1.13863 20C1.1407 20 1.1428 20 1.14492 20C1.14704 20 1.14919 20 1.15135 20C1.15352 20 1.15571 20 1.15792 20C1.16013 20 1.16236 20 1.16462 20C1.16687 20 1.16915 20 1.17145 20C1.17375 20 1.17608 20 1.17842 20C1.18077 20 1.18314 20 1.18553 20C1.18792 20 1.19033 20 1.19277 20C1.1952 20 1.19766 20 1.20014 20C1.20261 20 1.20512 20 1.20764 20C1.21016 20 1.21271 20 1.21527 20C1.21784 20 1.22043 20 1.22304 20C1.22565 20 1.22828 20 1.23093 20C1.23359 20 1.23626 20 1.23896 20C1.24166 20 1.24438 20 1.24712 20C1.24986 20 1.25262 20 1.2554 20C1.25818 20 1.26099 20 1.26382 20C1.26664 20 1.26949 20 1.27236 20C1.27523 20 1.27812 20 1.28103 20C1.28394 20 1.28687 20 1.28982 20C1.29277 20 1.29575 20 1.29874 20C1.30174 20 1.30476 20 1.30779 20C1.31083 20 1.31389 20 1.31697 20C1.32004 20 1.32314 20 1.32626 20C1.32938 20 1.33253 20 1.33569 20C1.33885 20 1.34203 20 1.34523 20C1.34844 20 1.35166 20 1.3549 20C1.35815 20 1.36141 20 1.3647 20C1.36798 20 1.37129 20 1.37461 20C1.37794 20 1.38128 20 1.38465 20C1.38801 20 1.3914 20 1.3948 20C1.39821 20 1.40164 20 1.40508 20C1.40853 20 1.41199 20 1.41548 20C1.41897 20 1.42247 20 1.426 20C1.42952 20 1.43307 20 1.43663 20C1.4402 20 1.44378 20 1.44739 20C1.45099 20 1.45462 20 1.45826 20C1.4619 20 1.46557 20 1.46925 20C1.47293 20 1.47664 20 1.48036 20C1.48408 20 1.48782 20 1.49158 20C1.49534 20 1.49912 20 1.50292 20C1.50672 20 1.51054 20 1.51437 20C1.51821 20 1.52207 20 1.52594 20C1.52982 20 1.53371 20 1.53763 20C1.54154 20 1.54547 20 1.54942 20C1.55337 20 1.55734 20 1.56133 20C1.56532 20 1.56933 20 1.57336 20C1.57738 20 1.58143 20 1.58549 20C1.58955 20 1.59364 20 1.59774 20C1.60184 20 1.60596 20 1.61009 20C1.61423 20 1.61839 20 1.62256 20C1.62674 20 1.63093 20 1.63514 20C1.63935 20 1.64358 20 1.64783 20C1.65207 20 1.65634 20 1.66062 20C1.66491 20 1.66921 20 1.67353 20C1.67785 20 1.68218 20 1.68654 20C1.69089 20 1.69527 20 1.69966 20C1.70405 20 1.70846 20 1.71288 20C1.71731 20 1.72175 20 1.72622 20C1.73068 20 1.73516 20 1.73965 20C1.74415 20 1.74867 20 1.7532 20C1.75773 20 1.76228 20 1.76685 20C1.77141 20 1.776 20 1.7806 20C1.7852 20 1.78982 20 1.79445 20C1.79909 20 1.80374 20 1.80841 20C1.81308 20 1.81777 20 1.82247 20C1.82718 20 1.8319 20 1.83663 20C1.84137 20 1.84613 20 1.8509 20C1.85567 20 1.86046 20 1.86526 20C1.87007 20 1.87489 20 1.87973 20C1.88457 20 1.88942 20 1.8943 20C1.89917 20 1.90406 20 1.90896 20C1.91386 20 1.91879 20 1.92372 20C1.92866 20 1.93362 20 1.93859 20C1.94356 20 1.94854 20 1.95354 20C1.95855 20 1.96357 20 1.9686 20C1.97364 20 1.97869 20 1.98375 20C1.98882 20 1.99391 20 1.999 20C2.0041 20 2.00922 20 2.01435 20C2.01948 20 2.02463 20 2.02979 20C2.03495 20 2.04013 20 2.04532 20C2.05052 20 2.05573 20 2.06095 20C2.06618 20 2.07142 20 2.07667 20C2.08193 20 2.0872 20 2.09249 20C2.09778 20 2.10308 20 2.1084 20C2.11371 20 2.11905 20 2.1244 20C2.12974 20 2.13511 20 2.14049 20C2.14587 20 2.15126 20 2.15667 20C2.16208 20 2.1675 20 2.17294 20C2.17838 20 2.18383 20 2.1893 20C2.19477 20 2.20025 20 2.20575 20C2.21125 20 2.21676 20 2.22229 20C2.22782 20 2.23336 20 2.23892 20C2.24448 20 2.25005 20 2.25563 20C2.26122 20 2.26682 20 2.27244 20C2.27805 20 2.28368 20 2.28932 20C2.29497 20 2.30063 20 2.3063 20C2.31197 20 2.31766 20 2.32336 20C2.32906 20 2.33478 20 2.3405 20C2.34623 20 2.35198 20 2.35773 20C2.36349 20 2.36926 20 2.37505 20C2.38083 20 2.38663 20 2.39244 20C2.39826 20 2.40408 20 2.40992 20C2.41576 20 2.42162 20 2.42749 20C2.43335 20 2.43924 20 2.44513 20C2.45103 20 2.45693 20 2.46286 20C2.46878 20 2.47471 20 2.48066 20C2.48661 20 2.49257 20 2.49855 20C2.50452 20 2.51051 20 2.51651 20C2.52251 20 2.52853 20 2.53456 20C2.54059 20 2.54663 20 2.55268 20C2.55873 20 2.5648 20 2.57088 20C2.57696 20 2.58305 20 2.58916 20C2.59527 20 2.60138 20 2.60752 20C2.61365 20 2.61979 20 2.62595 20C2.63211 20 2.63827 20 2.64446 20C2.65064 20 2.65683 20 2.66304 20C2.66925 20 2.67547 20 2.6817 20C2.68793 20 2.69417 20 2.70043 20C2.70669 20 2.71296 20 2.71924 20C2.72552 20 2.73181 20 2.73812 20C2.74442 20 2.75074 20 2.75707 20C2.7634 20 2.76974 20 2.77609 20C2.78245 20 2.78881 20 2.79519 20C2.80157 20 2.80796 20 2.81436 20C2.82076 20 2.82717 20 2.8336 20C2.84002 20 2.84646 20 2.85291 20C2.85935 20 2.86581 20 2.87228 20C2.87875 20 2.88524 20 2.89173 20C2.89822 20 2.90473 20 2.91124 20C2.91776 20 2.92429 20 2.93083 20C2.93737 20 2.94392 20 2.95048 20C2.95704 20 2.96361 20 2.9702 20C2.97678 20 2.98337 20 2.98998 20C2.99659 20 3.0032 20 3.00983 20C3.01646 20 3.0231 20 3.02974 20C3.03639 20 3.04305 20 3.04972 20C3.0564 20 3.06308 20 3.06977 20C3.07646 20 3.08316 20 3.08988 20C3.09659 20 3.10331 20 3.11005 20C3.11678 20 3.12353 20 3.13028 20C3.13704 20 3.1438 20 3.15058 20C3.15735 20 3.16414 20 3.17093 20C3.17773 20 3.18454 20 3.19135 20C3.19817 20 3.20499 20 3.21183 20C3.21867 20 3.22551 20 3.23237 20C3.23923 20 3.24609 20 3.25297 20C3.25984 20 3.26673 20 3.27362 20C3.28052 20 3.28742 20 3.29434 20C3.30125 20 3.30818 20 3.31511 20C3.32205 20 3.32899 20 3.33594 20C3.3429 20 3.34986 20 3.35683 20C3.3638 20 3.37078 20 3.37777 20C3.38477 20 3.39176 20 3.39877 20C3.40578 20 3.4128 20 3.41983 20C3.42686 20 3.43389 20 3.44094 20C3.44798 20 3.45504 20 3.4621 20C3.46916 20 3.47624 20 3.48332 20C3.4904 20 3.49749 20 3.50459 20C3.51169 20 3.51879 20 3.52591 20C3.53303 20 3.54015 20 3.54729 20C3.55442 20 3.56156 20 3.56871 20C3.57586 20 3.58302 20 3.59019 20C3.59736 20 3.60453 20 3.61172 20C3.6189 20 3.62609 20 3.63329 20C3.64049 20 3.6477 20 3.65492 20C3.66214 20 3.66936 20 3.67659 20C3.68383 20 3.69107 20 3.69832 20C3.70557 20 3.71283 20 3.72009 20C3.72736 20 3.73463 20 3.74191 20C3.74919 20 3.75648 20 3.76377 20C3.77107 20 3.77837 20 3.78569 20C3.793 20 3.80032 20 3.80764 20C3.81497 20 3.8223 20 3.82965 20C3.83699 20 3.84434 20 3.85169 20C3.85905 20 3.86641 20 3.87378 20C3.88115 20 3.88853 20 3.89592 20C3.9033 20 3.9107 20 3.91809 20C3.92549 20 3.9329 20 3.94031 20C3.94773 20 3.95515 20 3.96258 20C3.97 20 3.97744 20 3.98488 20C3.99232 20 3.99977 20 4.00722 20C4.01468 20 4.02214 20 4.02961 20C4.03708 20 4.04455 20 4.05203 20C4.05951 20 4.067 20 4.07449 20C4.08199 20 4.08949 20 4.097 20C4.1045 20 4.11202 20 4.11954 20C4.12706 20 4.13458 20 4.14211 20C4.14965 20 4.15719 20 4.16473 20C4.17227 20 4.17982 20 4.18738 20C4.19494 20 4.2025 20 4.21007 20C4.21764 20 4.22521 20 4.23279 20C4.24037 20 4.24796 20 4.25555 20C4.26314 20 4.27074 20 4.27834 20C4.28595 20 4.29355 20 4.30117 20C4.30878 20 4.3164 20 4.32403 20C4.33165 20 4.33929 20 4.34692 20C4.35456 20 4.3622 20 4.36985 20C4.37749 20 4.38515 20 4.3928 20C4.40046 20 4.40812 20 4.41579 20C4.42346 20 4.43113 20 4.43881 20C4.44649 20 4.45417 20 4.46186 20C4.46955 20 4.47724 20 4.48494 20C4.49264 20 4.50034 20 4.50805 20C4.51575 20 4.52347 20 4.53118 20C4.5389 20 4.54662 20 4.55435 20C4.56207 20 4.56981 20 4.57754 20C4.58528 20 4.59302 20 4.60076 20C4.6085 20 4.61625 20 4.62401 20C4.63176 20 4.63952 20 4.64728 20C4.65504 20 4.66281 20 4.67058 20C4.67834 20 4.68612 20 4.6939 20C4.70168 20 4.70946 20 4.71724 20C4.72503 20 4.73282 20 4.74061 20C4.74841 20 4.75621 20 4.76401 20C4.77181 20 4.77961 20 4.78742 20C4.79523 20 4.80305 20 4.81086 20C4.81868 20 4.8265 20 4.83432 20C4.84215 20 4.84997 20 4.8578 20C4.86564 20 4.87347 20 4.88131 20C4.88914 20 4.89698 20 4.90483 20C4.91267 20 4.92052 20 4.92837 20C4.93622 20 4.94407 20 4.95193 20C4.95979 20 4.96765 20 4.97551 20C4.98337 20 4.99124 20 4.99911 20C5.00698 20 5.01485 20 5.02272 20C5.0306 20 5.03848 20 5.04636 20C5.05424 20 5.06212 20 5.07 20C5.07789 20 5.08578 20 5.09367 20C5.10156 20 5.10945 20 5.11735 20C5.12524 20 5.13314 20 5.14104 20C5.14894 20 5.15684 20 5.16475 20C5.17265 20 5.18056 20 5.18847 20C5.19638 20 5.20429 20 5.21221 20C5.22012 20 5.22804 20 5.23596 20C5.24387 20 5.25179 20 5.25972 20C5.26764 20 5.27556 20 5.28349 20C5.29141 20 5.29934 20 5.30727 20C5.3152 20 5.32313 20 5.33106 20C5.339 20 5.34693 20 5.35487 20C5.3628 20 5.37074 20 5.37868 20C5.38662 20 5.39456 20 5.4025 20C5.41044 20 5.41839 20 5.42633 20C5.43428 20 5.44222 20 5.45017 20C5.45812 20 5.46607 20 5.47402 20C5.48197 20 5.48992 20 5.49787 20C5.50582 20 5.51377 20 5.52173 20C5.52968 20 5.53764 20 5.54559 20C5.55355 20 5.5615 20 5.56946 20C5.57742 20 5.58538 20 5.59334 20C5.60129 20 5.60925 20 5.61721 20C5.62517 20 5.63314 20 5.6411 20C5.64906 20 5.65702 20 5.66498 20C5.67294 20 5.68091 20 5.68887 20C5.69683 20 5.7048 20 5.71276 20C5.72072 20 5.72869 20 5.73665 20C5.74462 20 5.75258 20 5.76054 20C5.76851 20 5.77647 20 5.78444 20C5.7924 20 5.80037 20 5.80833 20C5.81629 20 5.82426 20 5.83222 20C5.84019 20 5.84815 20 5.85611 20C5.86408 20 5.87204 20 5.88 20C5.88797 20 5.89593 20 5.90389 20C5.91185 20 5.91981 20 5.92777 20C5.93574 20 5.9437 20 5.95166 20C5.95962 20 5.96757 20 5.97553 20C5.98349 20 5.99145 20 5.99941 20C6.00736 20 6.01532 20 6.02327 20C6.03123 20 6.03918 20 6.04714 20C6.05509 20 6.06304 20 6.07099 20C6.07895 20 6.0869 20 6.09484 20C6.10279 20 6.11074 20 6.11869 20C6.12663 20 6.13458 20 6.14252 20C6.15047 20 6.15841 20 6.16635 20C6.17429 20 6.18223 20 6.19017 20C6.19811 20 6.20605 20 6.21398 20C6.22192 20 6.22985 20 6.23778 20C6.24571 20 6.25364 20 6.26157 20C6.2695 20 6.27743 20 6.28535 20C6.29328 20 6.3012 20 6.30912 20C6.31704 20 6.32496 20 6.33288 20C6.34079 20 6.34871 20 6.35662 20C6.36453 20 6.37244 20 6.38035 20C6.38826 20 6.39617 20 6.40407 20C6.41197 20 6.41988 20 6.42777 20C6.43567 20 6.44357 20 6.45146 20C6.45936 20 6.46725 20 6.47514 20C6.48303 20 6.49091 20 6.4988 20C6.50668 20 6.51456 20 6.52244 20C6.53032 20 6.5382 20 6.54607 20C6.55394 20 6.56181 20 6.56968 20C6.57754 20 6.58541 20 6.59327 20C6.60113 20 6.60899 20 6.61684 20C6.6247 20 6.63255 20 6.6404 20C6.64825 20 6.65609 20 6.66393 20C6.67178 20 6.67962 20 6.68745 20C6.69529 20 6.70312 20 6.71095 20C6.71878 20 6.7266 20 6.73442 20C6.74224 20 6.75006 20 6.75788 20C6.76569 20 6.7735 20 6.78131 20C6.78911 20 6.79692 20 6.80472 20C6.81252 20 6.82031 20 6.8281 20C6.8359 20 6.84368 20 6.85147 20C6.85925 20 6.86703 20 6.87481 20C6.88258 20 6.89035 20 6.89812 20C6.90589 20 6.91365 20 6.92141 20C6.92917 20 6.93692 20 6.94467 20C6.95242 20 6.96017 20 6.96791 20C6.97565 20 6.98339 20 6.99112 20C6.99886 20 7.00658 20 7.01431 20C7.02203 20 7.02975 20 7.03746 20C7.04518 20 7.05289 20 7.06059 20C7.0683 20 7.07599 20 7.08369 20C7.09138 20 7.09907 20 7.10676 20C7.11444 20 7.12213 20 7.1298 20C7.13748 20 7.14514 20 7.15281 20C7.16047 20 7.16813 20 7.17579 20C7.18344 20 7.19109 20 7.19874 20C7.20638 20 7.21402 20 7.22165 20C7.22928 20 7.23691 20 7.24453 20C7.25216 20 7.25977 20 7.26738 20C7.27499 20 7.2826 20 7.2902 20C7.2978 20 7.30539 20 7.31298 20C7.32057 20 7.32815 20 7.33573 20C7.34331 20 7.35088 20 7.35844 20C7.36601 20 7.37357 20 7.38112 20C7.38867 20 7.39622 20 7.40376 20C7.4113 20 7.41883 20 7.42636 20C7.43389 20 7.44141 20 7.44893 20C7.45645 20 7.46395 20 7.47146 20C7.47896 20 7.48646 20 7.49395 20C7.50144 20 7.50892 20 7.5164 20C7.52388 20 7.53135 20 7.53881 20C7.54628 20 7.55373 20 7.56118 20C7.56863 20 7.57608 20 7.58351 20C7.59095 20 7.59838 20 7.60581 20C7.61323 20 7.62065 20 7.62805 20C7.63546 20 7.64287 20 7.65026 20C7.65766 20 7.66504 20 7.67243 20C7.67981 20 7.68718 20 7.69455 20C7.70191 20 7.70927 20 7.71662 20C7.72398 20 7.73132 20 7.73866 20C7.74599 20 7.75332 20 7.76065 20C7.76797 20 7.77528 20 7.78259 20C7.7899 20 7.7972 20 7.80449 20C7.81178 20 7.81906 20 7.82634 20C7.83361 20 7.84088 20 7.84814 20C7.8554 20 7.86266 20 7.8699 20C7.87714 20 7.88438 20 7.89161 20C7.89884 20 7.90606 20 7.91327 20C7.92048 20 7.92769 20 7.93488 20C7.94208 20 7.94926 20 7.95644 20C7.96362 20 7.97079 20 7.97796 20C7.98512 20 7.99227 20 7.99942 20C8.00656 20 8.0137 20 8.02083 20C8.02796 20 8.03508 20 8.04219 20C8.0493 20 8.0564 20 8.06349 20C8.07059 20 8.07767 20 8.08475 20C8.09182 20 8.09889 20 8.10595 20C8.11301 20 8.12005 20 8.12709 20C8.13413 20 8.14117 20 8.14819 20C8.15521 20 8.16222 20 8.16922 20C8.17623 20 8.18322 20 8.19021 20C8.19719 20 8.20417 20 8.21113 20C8.2181 20 8.22506 20 8.232 20C8.23895 20 8.24589 20 8.25282 20C8.25975 20 8.26666 20 8.27357 20C8.28048 20 8.28738 20 8.29427 20C8.30116 20 8.30804 20 8.31491 20C8.32178 20 8.32864 20 8.33549 20C8.34234 20 8.34918 20 8.35601 20C8.36284 20 8.36966 20 8.37647 20C8.38328 20 8.39008 20 8.39687 20C8.40366 20 8.41044 20 8.41721 20C8.42398 20 8.43074 20 8.43749 20C8.44423 20 8.45097 20 8.4577 20C8.46443 20 8.47114 20 8.47785 20C8.48456 20 8.49125 20 8.49794 20C8.50463 20 8.5113 20 8.51796 20C8.52463 20 8.53128 20 8.53792 20C8.54457 20 8.5512 20 8.55782 20C8.56444 20 8.57105 20 8.57765 20C8.58425 20 8.59084 20 8.59741 20C8.60399 20 8.61056 20 8.61711 20C8.62366 20 8.63021 20 8.63674 20C8.64327 20 8.64979 20 8.6563 20C8.66281 20 8.66931 20 8.6758 20C8.68228 20 8.68876 20 8.69522 20C8.70169 20 8.70814 20 8.71458 20C8.72102 20 8.72745 20 8.73387 20C8.74028 20 8.74669 20 8.75308 20C8.75948 20 8.76586 20 8.77223 20C8.7786 20 8.78496 20 8.7913 20C8.79765 20 8.80398 20 8.81031 20C8.81663 20 8.82294 20 8.82924 20C8.83554 20 8.84182 20 8.84809 20C8.85437 20 8.86063 20 8.86688 20C8.87313 20 8.87936 20 8.88559 20C8.89181 20 8.89803 20 8.90422 20C8.91042 20 8.91661 20 8.92279 20C8.92896 20 8.93512 20 8.94127 20C8.94742 20 8.95356 20 8.95968 20C8.9658 20 8.97191 20 8.97801 20C8.98411 20 8.99019 20 8.99627 20C9.00234 20 9.0084 20 9.01444 20C9.02049 20 9.02652 20 9.03254 20C9.03856 20 9.04457 20 9.05056 20C9.05656 20 9.06254 20 9.06851 20C9.07447 20 9.08043 20 9.08637 20C9.09231 20 9.09824 20 9.10415 20C9.11006 20 9.11596 20 9.12185 20C9.12774 20 9.13361 20 9.13947 20C9.14533 20 9.15117 20 9.157 20C9.16284 20 9.16866 20 9.17446 20C9.18026 20 9.18605 20 9.19183 20C9.19761 20 9.20337 20 9.20912 20C9.21487 20 9.2206 20 9.22632 20C9.23204 20 9.23775 20 9.24344 20C9.24913 20 9.25481 20 9.26048 20C9.26614 20 9.27179 20 9.27742 20C9.28306 20 9.28868 20 9.29429 20C9.29989 20 9.30549 20 9.31106 20C9.31664 20 9.3222 20 9.32775 20C9.3333 20 9.33883 20 9.34435 20C9.34987 20 9.35538 20 9.36086 20C9.36635 20 9.37183 20 9.37729 20C9.38275 20 9.38819 20 9.39362 20C9.39905 20 9.40447 20 9.40987 20C9.41527 20 9.42065 20 9.42602 20C9.43139 20 9.43674 20 9.44208 20C9.44742 20 9.45275 20 9.45805 20C9.46336 20 9.46866 20 9.47393 20C9.47921 20 9.48447 20 9.48972 20C9.49497 20 9.5002 20 9.50541 20C9.51063 20 9.51583 20 9.52101 20C9.5262 20 9.53137 20 9.53652 20C9.54167 20 9.54681 20 9.55193 20C9.55705 20 9.56216 20 9.56725 20C9.57234 20 9.57741 20 9.58247 20C9.58752 20 9.59257 20 9.59759 20C9.60262 20 9.60763 20 9.61262 20C9.61761 20 9.62259 20 9.62755 20C9.63251 20 9.63745 20 9.64238 20C9.64731 20 9.65222 20 9.65711 20C9.66201 20 9.66689 20 9.67175 20C9.67661 20 9.68145 20 9.68628 20C9.69111 20 9.69592 20 9.70072 20C9.70551 20 9.71029 20 9.71505 20C9.71981 20 9.72456 20 9.72929 20C9.73401 20 9.73872 20 9.74342 20C9.74811 20 9.75279 20 9.75745 20C9.76211 20 9.76675 20 9.77138 20C9.776 20 9.78061 20 9.7852 20C9.78979 20 9.79436 20 9.79892 20C9.80348 20 9.80801 20 9.81254 20C9.81706 20 9.82156 20 9.82605 20C9.83053 20 9.835 20 9.83945 20C9.8439 20 9.84834 20 9.85275 20C9.85717 20 9.86157 20 9.86595 20C9.87033 20 9.87469 20 9.87903 20C9.88338 20 9.8877 20 9.89201 20C9.89632 20 9.90061 20 9.90488 20C9.90916 20 9.91341 20 9.91765 20C9.92188 20 9.9261 20 9.9303 20C9.9345 20 9.93868 20 9.94284 20C9.94701 20 9.95115 20 9.95528 20C9.9594 20 9.96351 20 9.9676 20C9.97169 20 9.97576 20 9.97981 20C9.98387 20 9.9879 20 9.99191 20C9.99593 20 9.99992 20 10.0039 20V18ZM1.00463 19C1.92777 19.3845 1.92783 19.3843 1.92789 19.3842C1.92792 19.3841 1.92798 19.3839 1.92804 19.3838C1.92815 19.3835 1.92829 19.3832 1.92845 19.3828C1.92877 19.3821 1.92919 19.3811 1.92969 19.3798C1.93071 19.3774 1.93209 19.374 1.93383 19.3698C1.93731 19.3614 1.94221 19.3494 1.94842 19.3341C1.96083 19.3036 1.97848 19.2597 2.00045 19.2041C2.04435 19.093 2.10567 18.9345 2.17694 18.7409C2.31894 18.3551 2.50306 17.8231 2.66786 17.2455C2.83109 16.6733 2.98375 16.0276 3.05087 15.4216C3.11277 14.8627 3.12746 14.1435 2.83529 13.5557L1.04435 14.4459C1.04332 14.4438 1.0504 14.4577 1.05914 14.4946C1.06781 14.5311 1.07639 14.583 1.08173 14.6526C1.0926 14.7943 1.08779 14.9778 1.06302 15.2014C1.0133 15.6504 0.89316 16.1761 0.744596 16.6968C0.597591 17.2121 0.43092 17.6945 0.300067 18.05C0.234914 18.2269 0.179291 18.3707 0.140367 18.4692C0.120919 18.5184 0.105683 18.5563 0.0955591 18.5812C0.0904986 18.5936 0.0867198 18.6028 0.0843357 18.6086C0.0831438 18.6115 0.0823009 18.6136 0.0818213 18.6147C0.0815814 18.6153 0.0814325 18.6157 0.0813761 18.6158C0.0813479 18.6159 0.0813429 18.6159 0.0813612 18.6158C0.0813704 18.6158 0.0814018 18.6157 0.0814063 18.6157C0.0814435 18.6156 0.0814866 18.6155 1.00463 19ZM6 11H6.01V9H6V11ZM10 11H10.01V9H10V11ZM14 11H14.01V9H14V11Z" fill="#6938EF"/>
</svg>
