<svg width="197" height="44" viewBox="0 0 197 44" fill="none" xmlns="http://www.w3.org/2000/svg">
<rect width="197" height="44" rx="6" fill="#6938EF"/>
<path d="M31.8333 16.1667V17.8333H28.5V16.1667H31.8333ZM23.5 16.1667V21.1667H20.1667V16.1667H23.5ZM31.8333 22.8333V27.8333H28.5V22.8333H31.8333ZM23.5 26.1667V27.8333H20.1667V26.1667H23.5ZM33.5 14.5H26.8333V19.5H33.5V14.5ZM25.1667 14.5H18.5V22.8333H25.1667V14.5ZM33.5 21.1667H26.8333V29.5H33.5V21.1667ZM25.1667 24.5H18.5V29.5H25.1667V24.5Z" fill="white"/>
<path d="M54.1023 21.9091C54.1023 23.0062 53.8968 23.9458 53.4858 24.728C53.0781 25.5069 52.5213 26.1035 51.8153 26.5178C51.1127 26.9321 50.3156 27.1392 49.424 27.1392C48.5324 27.1392 47.7337 26.9321 47.0277 26.5178C46.325 26.1001 45.7682 25.5019 45.3572 24.723C44.9496 23.9408 44.7457 23.0028 44.7457 21.9091C44.7457 20.812 44.9496 19.8741 45.3572 19.0952C45.7682 18.313 46.325 17.7147 47.0277 17.3004C47.7337 16.8861 48.5324 16.679 49.424 16.679C50.3156 16.679 51.1127 16.8861 51.8153 17.3004C52.5213 17.7147 53.0781 18.313 53.4858 19.0952C53.8968 19.8741 54.1023 20.812 54.1023 21.9091ZM52.2479 21.9091C52.2479 21.1368 52.1269 20.4856 51.8849 19.9553C51.6463 19.4216 51.3149 19.0189 50.8906 18.7472C50.4664 18.4721 49.9775 18.3345 49.424 18.3345C48.8705 18.3345 48.3816 18.4721 47.9574 18.7472C47.5331 19.0189 47.2 19.4216 46.9581 19.9553C46.7195 20.4856 46.6001 21.1368 46.6001 21.9091C46.6001 22.6813 46.7195 23.3343 46.9581 23.8679C47.2 24.3982 47.5331 24.8009 47.9574 25.076C48.3816 25.3478 48.8705 25.4837 49.424 25.4837C49.9775 25.4837 50.4664 25.3478 50.8906 25.076C51.3149 24.8009 51.6463 24.3982 51.8849 23.8679C52.1269 23.3343 52.2479 22.6813 52.2479 21.9091ZM62.5875 19.3636L59.8681 27H57.8794L55.16 19.3636H57.079L58.834 25.0362H58.9135L60.6735 19.3636H62.5875ZM66.9538 27.1491C66.1882 27.1491 65.527 26.9901 64.9702 26.6719C64.4167 26.3504 63.9908 25.8963 63.6925 25.3097C63.3942 24.7197 63.245 24.0253 63.245 23.2266C63.245 22.4411 63.3942 21.7517 63.6925 21.1584C63.9941 20.5618 64.415 20.0978 64.9553 19.7663C65.4955 19.4316 66.1302 19.2642 66.8594 19.2642C67.33 19.2642 67.7741 19.3404 68.1918 19.4929C68.6127 19.642 68.9839 19.8741 69.3054 20.1889C69.6302 20.5038 69.8854 20.9048 70.071 21.392C70.2566 21.8759 70.3494 22.4527 70.3494 23.1222V23.674H64.0902V22.4609H68.6243C68.621 22.1162 68.5464 21.8097 68.4006 21.5412C68.2547 21.2694 68.0509 21.0556 67.7891 20.8999C67.5305 20.7441 67.2289 20.6662 66.8842 20.6662C66.5163 20.6662 66.1932 20.7557 65.9148 20.9347C65.6364 21.1103 65.4193 21.3423 65.2635 21.6307C65.111 21.9157 65.0331 22.2289 65.0298 22.5703V23.6293C65.0298 24.0734 65.111 24.4545 65.2734 24.7727C65.4358 25.0876 65.6629 25.3295 65.9545 25.4986C66.2462 25.6643 66.5876 25.7472 66.9787 25.7472C67.2405 25.7472 67.4775 25.7107 67.6896 25.6378C67.9018 25.5616 68.0857 25.4505 68.2415 25.3047C68.3973 25.1589 68.5149 24.9782 68.5945 24.7628L70.2749 24.9517C70.1688 25.3958 69.9666 25.7836 69.6683 26.1151C69.3733 26.4432 68.9955 26.6984 68.5348 26.8807C68.0741 27.0597 67.5471 27.1491 66.9538 27.1491ZM71.872 27V19.3636H73.617V20.6364H73.6966C73.8358 20.1955 74.0744 19.8558 74.4125 19.6172C74.7538 19.3752 75.1433 19.2543 75.5808 19.2543C75.6802 19.2543 75.7913 19.2592 75.9139 19.2692C76.0398 19.2758 76.1442 19.2874 76.2271 19.304V20.9595C76.1509 20.933 76.0299 20.9098 75.8642 20.8899C75.7018 20.8667 75.5443 20.8551 75.3919 20.8551C75.0637 20.8551 74.7688 20.9264 74.5069 21.0689C74.2484 21.2081 74.0446 21.402 73.8954 21.6506C73.7463 21.8991 73.6717 22.1858 73.6717 22.5107V27H71.872ZM84.4762 19.3636L81.7567 27H79.7681L77.0487 19.3636H78.9677L80.7227 25.0362H80.8022L82.5621 19.3636H84.4762ZM85.7216 27V19.3636H87.5213V27H85.7216ZM86.6264 18.2798C86.3414 18.2798 86.0961 18.1854 85.8906 17.9964C85.6851 17.8042 85.5824 17.5739 85.5824 17.3054C85.5824 17.0336 85.6851 16.8033 85.8906 16.6143C86.0961 16.4221 86.3414 16.326 86.6264 16.326C86.9148 16.326 87.16 16.4221 87.3622 16.6143C87.5677 16.8033 87.6705 17.0336 87.6705 17.3054C87.6705 17.5739 87.5677 17.8042 87.3622 17.9964C87.16 18.1854 86.9148 18.2798 86.6264 18.2798ZM92.7527 27.1491C91.987 27.1491 91.3258 26.9901 90.769 26.6719C90.2155 26.3504 89.7896 25.8963 89.4913 25.3097C89.193 24.7197 89.0439 24.0253 89.0439 23.2266C89.0439 22.4411 89.193 21.7517 89.4913 21.1584C89.7929 20.5618 90.2138 20.0978 90.7541 19.7663C91.2943 19.4316 91.929 19.2642 92.6582 19.2642C93.1288 19.2642 93.573 19.3404 93.9906 19.4929C94.4115 19.642 94.7827 19.8741 95.1042 20.1889C95.429 20.5038 95.6842 20.9048 95.8699 21.392C96.0555 21.8759 96.1483 22.4527 96.1483 23.1222V23.674H89.889V22.4609H94.4231C94.4198 22.1162 94.3452 21.8097 94.1994 21.5412C94.0536 21.2694 93.8497 21.0556 93.5879 20.8999C93.3294 20.7441 93.0278 20.6662 92.6831 20.6662C92.3152 20.6662 91.992 20.7557 91.7136 20.9347C91.4352 21.1103 91.2181 21.3423 91.0623 21.6307C90.9099 21.9157 90.832 22.2289 90.8287 22.5703V23.6293C90.8287 24.0734 90.9099 24.4545 91.0723 24.7727C91.2347 25.0876 91.4617 25.3295 91.7534 25.4986C92.045 25.6643 92.3864 25.7472 92.7775 25.7472C93.0394 25.7472 93.2763 25.7107 93.4885 25.6378C93.7006 25.5616 93.8845 25.4505 94.0403 25.3047C94.1961 25.1589 94.3137 24.9782 94.3933 24.7628L96.0737 24.9517C95.9676 25.3958 95.7654 25.7836 95.4672 26.1151C95.1722 26.4432 94.7943 26.6984 94.3336 26.8807C93.8729 27.0597 93.3459 27.1491 92.7527 27.1491ZM99.2058 27L97.0481 19.3636H98.8826L100.225 24.733H100.295L101.667 19.3636H103.481L104.854 24.7031H104.928L106.251 19.3636H108.09L105.927 27H104.053L102.621 21.8395H102.517L101.085 27H99.2058Z" fill="white"/>
</svg>
