<svg width="76" height="77" viewBox="0 0 76 77" fill="none" xmlns="http://www.w3.org/2000/svg">
<rect y="0.5" width="76" height="76" rx="38" fill="#FEF7C3"/>
<path d="M34.0366 42.4551L56.9058 19.5943M34.6866 43.4831L39.8723 53.8545C41.1254 56.3608 41.752 57.6139 42.5414 57.95C43.2264 58.2416 44.0095 58.1888 44.6491 57.8079C45.3863 57.369 45.839 56.0431 46.7445 53.3913L56.5425 24.6971C57.3315 22.3865 57.726 21.2312 57.456 20.4669C57.2211 19.8021 56.6981 19.2791 56.0332 19.0442C55.269 18.7742 54.1137 19.1687 51.8031 19.9576L23.1089 29.7557C20.4571 30.6612 19.1312 31.1139 18.6923 31.851C18.3113 32.4907 18.2586 33.2738 18.5502 33.9588C18.8862 34.7481 20.1394 35.3747 22.6457 36.6279L33.017 41.8135C33.43 42.02 33.6365 42.1233 33.8154 42.2612C33.9742 42.3836 34.1166 42.5259 34.239 42.6847C34.3769 42.8637 34.4801 43.0702 34.6866 43.4831Z" stroke="#CA8504" stroke-width="2" stroke-linecap="round" stroke-linejoin="round"/>
</svg>
