<svg width="20" height="20" viewBox="0 0 20 20" fill="none" xmlns="http://www.w3.org/2000/svg">
<path d="M10 1V7M10 1L7.5 3.5M10 1L12.5 3.5M19 10.2V15.8C19 16.9201 19 17.4802 18.782 17.908C18.5903 18.2843 18.2843 18.5903 17.908 18.782C17.4802 19 16.9201 19 15.8 19H4.2C3.0799 19 2.51984 19 2.09202 18.782C1.71569 18.5903 1.40973 18.2843 1.21799 17.908C1 17.4802 1 16.9201 1 15.8V10.2C1 9.0799 1 8.51984 1.21799 8.09202C1.40973 7.71569 1.71569 7.40973 2.09202 7.21799C2.51984 7 3.0799 7 4.2 7H6M19 10.2C19 9.0799 19 8.51984 18.782 8.09202C18.5903 7.71569 18.2843 7.40973 17.908 7.21799C17.4802 7 16.9201 7 15.8 7H14M19 10.2C18.5 10.5 17.6726 10.5 17.5 10.5C16.3954 10.5 15.5 9.60457 15.5 8.5C15.5 7.90265 15.7619 7.36647 16.1771 7M4 19C4.78105 18.219 4.78105 16.781 4 16C3.21895 15.219 1.78105 15.219 1 16M4 7C4.78105 7.78105 4.78105 9.21895 4 10C3.21895 10.781 1.78105 10.781 1 10M16 19C15.219 18.219 15.219 16.781 16 16C16.781 15.219 18.219 15.219 19 16M12 13C12 14.1046 11.1046 15 10 15C8.89543 15 8 14.1046 8 13C8 11.8954 8.89543 11 10 11C11.1046 11 12 11.8954 12 13Z" stroke="#6938EF" stroke-width="2" stroke-linecap="round" stroke-linejoin="round"/>
</svg>
