<svg width="24" height="24" viewBox="0 0 24 24" fill="none" xmlns="http://www.w3.org/2000/svg">
<path d="M24 17.4288C24 16.1863 23.3458 15.1042 22.3673 14.4871C22.5154 14.101 22.6059 13.6855 22.6059 13.2459C22.6059 11.4665 21.2688 10.0169 19.5483 9.80366C19.7122 9.35314 19.8171 8.87314 19.8171 8.36571C19.8171 6.05554 17.9445 4.18286 15.6343 4.18286C15.0837 4.18286 14.5605 4.296 14.0798 4.48937C13.597 2.70994 11.9883 1.39406 10.0574 1.39406C8.84434 1.39406 7.76229 1.91863 6.9984 2.74217C6.40937 1.14446 4.88709 0 3.08571 0C1.85417 0 0.761829 0.543086 0 1.392V20.2128C0.883886 20.6551 1.94331 20.9143 3.08571 20.9143C4.89257 20.9143 6.48343 20.2587 7.50171 19.259C8.16549 21.0144 10.2933 22.3083 12.8462 22.3083C14.3465 22.3083 15.7029 21.8592 16.704 21.1358C16.9783 22.0917 17.0544 22.9653 17.0757 24H21.84C22.3118 23.3753 22.6059 22.5387 22.6059 21.6117C22.6059 21.1639 22.5319 20.7401 22.4105 20.3486C23.3657 19.7266 24 18.6528 24 17.4288Z" fill="#FFAC33"/>
</svg>
