<svg width="18" height="18" viewBox="0 0 18 18" fill="none" xmlns="http://www.w3.org/2000/svg">
<path d="M9.03769 17.9626C4.08769 17.9626 0.0751953 13.9501 0.0751953 9.0001C0.0751953 4.0501 4.08769 0.0375977 9.03769 0.0375977C13.9877 0.0375977 18.0002 4.0501 18.0002 9.0001C18.0002 13.9126 13.9877 17.9626 9.03769 17.9626ZM9.03769 0.975098C4.65019 0.975098 1.05019 4.57509 1.05019 8.96259C1.05019 13.3501 4.65019 16.9501 9.03769 16.9501C13.4252 16.9501 17.0252 13.3501 17.0252 8.96259C17.0252 4.57509 13.4252 0.975098 9.03769 0.975098Z" fill="#101828"/>
<path d="M5.1378 13.5752L4.42529 12.8627L12.9003 4.3877L13.6128 5.10019L5.1378 13.5752Z" fill="#101828"/>
<path d="M12.9003 13.5752L4.42529 5.10019L5.1378 4.3877L13.6128 12.8627L12.9003 13.5752Z" fill="#101828"/>
</svg>
