<svg width="107" height="62" viewBox="0 0 107 62" fill="none" xmlns="http://www.w3.org/2000/svg">
<g clip-path="url(#clip0_14_374)">
<path d="M86.0072 0L74.9015 2.33071V46.6143H86.0072V0Z" fill="#56BD82"/>
<path d="M54.3869 13.2378C50.9976 13.2378 47.6844 14.2304 44.8663 16.0901C42.0482 17.9497 39.8517 20.5929 38.5547 23.6855C37.2577 26.778 36.9183 30.1809 37.5795 33.4639C38.2407 36.7469 39.8729 39.7625 42.2695 42.1294C44.6661 44.4963 47.7195 46.1082 51.0437 46.7613C54.3679 47.4143 57.8135 47.0791 60.9448 45.7982C64.0761 44.5172 66.7525 42.348 68.6355 39.5648C70.5185 36.7816 71.5236 33.5094 71.5236 30.1621C71.5232 25.6736 69.7176 21.3691 66.5039 18.1953C63.2902 15.0214 58.9317 13.2382 54.3869 13.2378ZM54.3869 35.6462C53.2887 35.6462 52.2151 35.3245 51.3019 34.7219C50.3888 34.1193 49.677 33.2628 49.2568 32.2608C48.8365 31.2587 48.7265 30.156 48.9408 29.0922C49.155 28.0284 49.6839 27.0513 50.4605 26.2843C51.237 25.5174 52.2265 24.9951 53.3036 24.7835C54.3807 24.5719 55.4972 24.6805 56.5119 25.0955C57.5265 25.5106 58.3938 26.2135 59.0039 27.1154C59.6141 28.0172 59.9397 29.0775 59.9397 30.1621C59.9397 31.6166 59.3547 33.0115 58.3134 34.0399C57.272 35.0684 55.8596 35.6462 54.3869 35.6462Z" fill="#56BD82"/>
<path d="M54.3869 51.032C55.4852 51.032 56.5587 51.3536 57.4719 51.9562C58.3851 52.5588 59.0968 53.4153 59.5171 54.4174C59.9373 55.4194 60.0473 56.5221 59.833 57.5859C59.6188 58.6497 59.0899 59.6269 58.3134 60.3938C57.5368 61.1608 56.5474 61.6831 55.4702 61.8947C54.3931 62.1063 53.2766 61.9977 52.2619 61.5826C51.2473 61.1675 50.38 60.4646 49.7699 59.5628C49.1597 58.6609 48.8341 57.6007 48.8341 56.516C48.8341 55.0616 49.4191 53.6667 50.4605 52.6382C51.5018 51.6098 52.9142 51.032 54.3869 51.032Z" fill="#56BD82"/>
<path d="M29.6768 21.9666C31.0407 19.7854 31.7903 17.2842 31.8482 14.7213C31.9061 12.1584 31.2702 9.62663 30.0061 7.38757C28.742 5.14852 26.8957 3.28332 24.6577 1.98461C22.4197 0.685908 19.8712 0.00078435 17.2755 0L0 0V46.6143H19.4349C22.3262 46.6131 25.1519 45.7632 27.5529 44.1724C29.954 42.5817 31.822 40.3219 32.9197 37.6803C34.0174 35.0386 34.2952 32.1343 33.7178 29.3364C33.1403 26.5385 31.7338 23.9732 29.6768 21.9666ZM11.1211 10.9681H17.2909C18.2113 10.9681 19.0941 11.3292 19.7449 11.972C20.3958 12.6147 20.7614 13.4865 20.7614 14.3956C20.7614 15.3046 20.3958 16.1764 19.7449 16.8192C19.0941 17.462 18.2113 17.8231 17.2909 17.8231H11.1211V10.9681ZM19.4503 35.6462H11.1211V28.7912H19.4503C20.3708 28.7912 21.2535 29.1523 21.9044 29.7951C22.5552 30.4378 22.9209 31.3096 22.9209 32.2187C22.9209 33.1277 22.5552 33.9995 21.9044 34.6423C21.2535 35.2851 20.3708 35.6462 19.4503 35.6462Z" fill="#56BD82"/>
<path d="M106.985 24.8306V13.8625H101.432V5.48413L90.3261 7.81484V36.1947C90.3261 42.8822 94.537 46.7362 100.738 47.0561C100.799 47.0561 100.876 47.0714 100.938 47.0714H101.046C101.185 47.0714 101.308 47.0866 101.447 47.0866H101.586C103.478 47.0783 105.338 46.6073 107 45.7156V37.6419C106.191 37.8589 105.355 37.9665 104.517 37.9618C102.296 37.9618 101.447 36.0424 101.447 33.4375V24.8306H106.985Z" fill="#56BD82"/>
</g>
<defs>
<clipPath id="clip0_14_374">
<rect width="107" height="62" fill="white"/>
</clipPath>
</defs>
</svg>
