<svg width="13" height="14" viewBox="0 0 13 14" fill="none" xmlns="http://www.w3.org/2000/svg">
<path fill-rule="evenodd" clip-rule="evenodd" d="M6.50058 0.600098C4.76242 0.600098 4.54429 0.607698 3.86161 0.638765C3.18027 0.669965 2.7152 0.777833 2.30827 0.936101C1.88733 1.09957 1.53026 1.31824 1.17452 1.67411C0.818516 2.02985 0.599847 2.38692 0.435846 2.80772C0.277177 3.21479 0.169176 3.68 0.138509 4.36107C0.107976 5.04374 0.0999756 5.26201 0.0999756 7.00016C0.0999756 8.73831 0.107709 8.95578 0.138643 9.63846C0.169976 10.3198 0.277844 10.7849 0.435979 11.1918C0.599581 11.6127 0.81825 11.9698 1.17412 12.3256C1.52972 12.6816 1.88679 12.9008 2.30747 13.0642C2.71467 13.2225 3.17987 13.3304 3.86108 13.3616C4.54376 13.3926 4.76176 13.4002 6.49978 13.4002C8.23806 13.4002 8.45553 13.3926 9.1382 13.3616C9.81954 13.3304 10.2851 13.2225 10.6924 13.0642C11.1132 12.9008 11.4697 12.6816 11.8253 12.3256C12.1813 11.9698 12.4 11.6127 12.564 11.1919C12.7213 10.7849 12.8293 10.3197 12.8613 9.63859C12.892 8.95592 12.9 8.73831 12.9 7.00016C12.9 5.26201 12.892 5.04388 12.8613 4.3612C12.8293 3.67986 12.7213 3.21479 12.564 2.80785C12.4 2.38692 12.1813 2.02985 11.8253 1.67411C11.4693 1.31811 11.1133 1.09944 10.692 0.936101C10.2839 0.777833 9.81861 0.669965 9.13727 0.638765C8.4546 0.607698 8.23726 0.600098 6.49858 0.600098H6.50058ZM5.92641 1.75343C6.09681 1.75316 6.28695 1.75343 6.50055 1.75343C8.20937 1.75343 8.4119 1.75956 9.08671 1.79023C9.71071 1.81876 10.0494 1.92303 10.275 2.01063C10.5737 2.12663 10.7866 2.2653 11.0105 2.4893C11.2345 2.7133 11.3731 2.92664 11.4894 3.22531C11.577 3.45064 11.6814 3.78931 11.7098 4.41332C11.7405 5.08799 11.7471 5.29066 11.7471 6.99868C11.7471 8.7067 11.7405 8.90937 11.7098 9.58404C11.6813 10.208 11.577 10.5467 11.4894 10.7721C11.3734 11.0707 11.2345 11.2834 11.0105 11.5073C10.7865 11.7313 10.5738 11.8699 10.275 11.9859C10.0497 12.0739 9.71071 12.1779 9.08671 12.2065C8.41203 12.2371 8.20937 12.2438 6.50055 12.2438C4.7916 12.2438 4.58906 12.2371 3.91439 12.2065C3.29038 12.1777 2.95171 12.0734 2.72598 11.9858C2.42731 11.8698 2.21397 11.7311 1.98997 11.5071C1.76597 11.2831 1.6273 11.0703 1.51103 10.7715C1.42343 10.5462 1.31903 10.2075 1.29063 9.58351C1.25996 8.90883 1.25383 8.70616 1.25383 6.99708C1.25383 5.28799 1.25996 5.08639 1.29063 4.41172C1.31916 3.78771 1.42343 3.44904 1.51103 3.22344C1.62703 2.92477 1.76597 2.71143 1.98997 2.48743C2.21397 2.26343 2.42731 2.12476 2.72598 2.00849C2.95158 1.92049 3.29038 1.81649 3.91439 1.78783C4.50479 1.76116 4.7336 1.75316 5.92641 1.75182V1.75343ZM9.91685 2.81611C9.49285 2.81611 9.14885 3.15971 9.14885 3.58385C9.14885 4.00785 9.49285 4.35185 9.91685 4.35185C10.3409 4.35185 10.6849 4.00785 10.6849 3.58385C10.6849 3.15984 10.3409 2.81611 9.91685 2.81611ZM6.50059 3.71345C4.6855 3.71345 3.21389 5.18506 3.21389 7.00015C3.21389 8.81523 4.6855 10.2862 6.50059 10.2862C8.31567 10.2862 9.78675 8.81523 9.78675 7.00015C9.78675 5.18506 8.31567 3.71345 6.50059 3.71345ZM6.50056 4.86679C7.67871 4.86679 8.63392 5.82187 8.63392 7.00015C8.63392 8.17829 7.67871 9.1335 6.50056 9.1335C5.32228 9.1335 4.36721 8.17829 4.36721 7.00015C4.36721 5.82187 5.32228 4.86679 6.50056 4.86679Z" fill="#F2F2F2"/>
</svg>
