<svg width="39" height="40" viewBox="0 0 39 40" fill="none" xmlns="http://www.w3.org/2000/svg">
<g clip-path="url(#clip0_10111_168)">
<circle cx="19.5" cy="20" r="19.5" fill="#6938EF"/>
<path d="M30.55 21.8475C30.2837 21.5212 29.6462 21.0937 28.3862 21.9112C27.0887 22.7062 25.6337 23.5537 25.03 23.85C24.58 22.8937 23.755 22.7325 23.335 22.8C19.78 23.4187 18.4225 22.35 18.4187 22.35C18.3362 22.275 16.3862 20.5612 14.2075 21.7312C13.0337 22.3612 12.2725 22.5262 11.8825 22.5675V21.99C11.8825 21.7837 11.7137 21.615 11.5075 21.615H9.535C9.32875 21.615 9.16 21.7837 9.16 21.99V22.4025H7.5625C7.35625 22.4025 7.1875 22.5712 7.1875 22.7775C7.1875 22.9837 7.35625 23.1525 7.5625 23.1525H9.16V27.135H7.5625C7.35625 27.135 7.1875 27.3037 7.1875 27.51C7.1875 27.7162 7.35625 27.885 7.5625 27.885H9.16V28.2975C9.16 28.5037 9.32875 28.6725 9.535 28.6725H11.5075C11.7137 28.6725 11.8825 28.5037 11.8825 28.2975V28.2487H12.4037C12.4262 28.2487 14.5262 28.3237 16.5925 29.2087C17.86 29.7525 19.2137 30.0375 20.3125 30.0375C21.0587 30.0375 21.685 29.9062 22.09 29.6362C22.3375 29.4825 28.1537 25.83 30.4337 23.5125C30.8912 23.0475 30.9437 22.3312 30.55 21.8475ZM11.1287 27.9225H9.91V22.365H11.1325V27.9225H11.1287ZM29.8975 22.9875C27.6775 25.2412 21.7487 28.965 21.6812 29.0062C20.9912 29.4637 18.9625 29.4075 16.885 28.5187C14.6837 27.5775 12.5162 27.5025 12.4112 27.4987H11.8787V23.3212C12.3625 23.2837 13.24 23.1 14.56 22.3912C16.27 21.4725 17.8525 22.8487 17.9237 22.9125C17.9875 22.965 19.5137 24.225 23.4587 23.5387C23.485 23.535 24.1225 23.4487 24.4338 24.3675C24.4075 24.5925 24.1937 25.545 22.4912 25.6237H17.5937C17.3875 25.6237 17.2187 25.7925 17.2187 25.9987C17.2187 26.205 17.3875 26.3737 17.5937 26.3737H22.51C24.5237 26.2837 25.0225 25.155 25.1462 24.6112C25.6375 24.42 26.6237 23.8725 28.7875 22.545C29.1962 22.2787 29.7325 22.0275 29.9687 22.32C30.115 22.5037 30.085 22.7962 29.8975 22.9875Z" fill="white"/>
<path d="M20.6388 21.5737C24.115 21.5737 26.9425 18.7462 26.9425 15.27C26.9425 11.7937 24.115 8.96625 20.6388 8.96625C17.1625 8.96625 14.335 11.7937 14.335 15.27C14.335 18.7462 17.1625 21.5737 20.6388 21.5737ZM20.6388 9.7125C23.7025 9.7125 26.1925 12.2062 26.1925 15.2662C26.1925 18.3262 23.6988 20.82 20.6388 20.82C17.5788 20.82 15.085 18.3262 15.085 15.2662C15.085 12.2062 17.575 9.7125 20.6388 9.7125Z" fill="white"/>
<path d="M20.6387 19.8787C23.1812 19.8787 25.2512 17.8087 25.2512 15.2662C25.2512 12.7237 23.1812 10.6537 20.6387 10.6537C18.0962 10.6537 16.0262 12.7237 16.0262 15.2662C16.0262 17.8087 18.0962 19.8787 20.6387 19.8787ZM20.6387 11.4075C22.7687 11.4075 24.5012 13.14 24.5012 15.27C24.5012 17.4 22.7687 19.1325 20.6387 19.1325C18.5087 19.1325 16.7762 17.4 16.7762 15.27C16.7762 13.14 18.5087 11.4075 20.6387 11.4075Z" fill="white"/>
<path d="M19.2625 15.75L18.7675 17.2725C18.7187 17.4263 18.7712 17.595 18.9025 17.6925C18.97 17.7413 19.045 17.7638 19.1237 17.7638C19.2025 17.7638 19.2775 17.7413 19.345 17.6925L20.6387 16.7513L21.9325 17.6925C22.0637 17.7863 22.2437 17.7863 22.375 17.6925C22.5062 17.5988 22.5625 17.4263 22.51 17.2725L22.015 15.75L23.3087 14.8088C23.44 14.715 23.4962 14.5425 23.4437 14.3888C23.3912 14.235 23.2487 14.13 23.0875 14.13H21.49L20.995 12.6075C20.9462 12.4538 20.8 12.3488 20.6387 12.3488C20.4775 12.3488 20.3312 12.4538 20.2825 12.6075L19.7875 14.13H18.19C18.0287 14.13 17.8825 14.235 17.8337 14.3888C17.785 14.5425 17.8375 14.7113 17.9687 14.8088L19.2625 15.75ZM20.0612 14.88C20.2225 14.88 20.3687 14.775 20.4175 14.6213L20.6387 13.9388L20.86 14.6213C20.9087 14.775 21.055 14.88 21.2162 14.88H21.9325L21.3512 15.3C21.22 15.3938 21.1637 15.5663 21.2162 15.72L21.4375 16.4025L20.8562 15.9825C20.725 15.8888 20.5487 15.8888 20.4137 15.9825L19.8325 16.4025L20.0537 15.72C20.1025 15.5663 20.05 15.3975 19.9187 15.3L19.3375 14.88H20.0612Z" fill="white"/>
</g>
<defs>
<clipPath id="clip0_10111_168">
<rect width="39" height="39" fill="white" transform="translate(0 0.5)"/>
</clipPath>
</defs>
</svg>
