<svg width="481" height="220" viewBox="0 0 481 220" fill="none" xmlns="http://www.w3.org/2000/svg">
<path d="M25.549 15.4496C25.3842 13.7881 24.6771 12.4974 23.4276 11.5774C22.178 10.6574 20.4822 10.1974 18.3402 10.1974C16.8847 10.1974 15.6558 10.4034 14.6534 10.8153C13.651 11.2135 12.8821 11.7696 12.3466 12.4837C11.8248 13.1977 11.5639 14.0078 11.5639 14.9141C11.5365 15.6693 11.6944 16.3284 12.0376 16.8913C12.3946 17.4543 12.8821 17.9418 13.5 18.3537C14.1179 18.7519 14.8319 19.102 15.642 19.4041C16.4522 19.6925 17.3172 19.9396 18.2372 20.1456L22.027 21.0518C23.867 21.4638 25.5559 22.013 27.0938 22.6996C28.6316 23.3861 29.9635 24.2306 31.0895 25.233C32.2154 26.2353 33.0874 27.4162 33.7053 28.7756C34.3369 30.1349 34.6596 31.6934 34.6733 33.451C34.6596 36.0324 34.0005 38.2706 32.696 40.1655C31.4053 42.0466 29.5379 43.509 27.0938 44.5526C24.6634 45.5824 21.7318 46.0973 18.299 46.0973C14.8937 46.0973 11.9278 45.5755 9.40128 44.532C6.88849 43.4884 4.92495 41.9437 3.51065 39.8977C2.11009 37.8381 1.37547 35.291 1.30682 32.2564H9.93679C10.0329 33.6707 10.438 34.8516 11.152 35.799C11.8797 36.7327 12.8478 37.4399 14.0561 37.9205C15.2782 38.3873 16.6581 38.6207 18.196 38.6207C19.7064 38.6207 21.0178 38.401 22.13 37.9616C23.2559 37.5223 24.1278 36.9112 24.7457 36.1286C25.3636 35.3459 25.6726 34.4465 25.6726 33.4304C25.6726 32.483 25.3911 31.6866 24.8281 31.0412C24.2789 30.3958 23.4688 29.8466 22.3977 29.3935C21.3404 28.9403 20.0429 28.5284 18.505 28.1577L13.9119 27.0043C10.3556 26.1392 7.54759 24.7867 5.48793 22.9467C3.42827 21.1068 2.4053 18.6283 2.41903 15.5114C2.4053 12.9574 3.08499 10.7261 4.4581 8.81747C5.84493 6.90885 7.74669 5.41903 10.1634 4.34801C12.58 3.27699 15.3262 2.74148 18.402 2.74148C21.5327 2.74148 24.2652 3.27699 26.5994 4.34801C28.9474 5.41903 30.7737 6.90885 32.0781 8.81747C33.3826 10.7261 34.0554 12.9368 34.0966 15.4496H25.549ZM54.4249 46.1179C51.1706 46.1179 48.3695 45.4588 46.0215 44.1406C43.6872 42.8087 41.8884 40.9276 40.6252 38.4972C39.3619 36.053 38.7303 33.1626 38.7303 29.826C38.7303 26.5717 39.3619 23.7157 40.6252 21.2578C41.8884 18.8 43.6666 16.8845 45.9597 15.5114C48.2665 14.1383 50.9715 13.4517 54.0748 13.4517C56.1619 13.4517 58.1048 13.7881 59.9036 14.4609C61.7161 15.12 63.2952 16.1155 64.6408 17.4474C66.0002 18.7794 67.0575 20.4545 67.8127 22.473C68.5679 24.4777 68.9455 26.8258 68.9455 29.517V31.9268H42.2317V26.4893H60.6863C60.6863 25.2261 60.4116 24.107 59.8624 23.1321C59.3132 22.1572 58.5511 21.3951 57.5762 20.8459C56.615 20.2829 55.4959 20.0014 54.2189 20.0014C52.887 20.0014 51.7061 20.3104 50.6763 20.9283C49.6602 21.5324 48.8638 22.3494 48.2871 23.3793C47.7104 24.3954 47.4152 25.5282 47.4015 26.7777V31.9474C47.4015 33.5128 47.6898 34.8653 48.2665 36.005C48.8569 37.1446 49.6877 38.0234 50.7587 38.6413C51.8297 39.2592 53.0998 39.5682 54.5691 39.5682C55.544 39.5682 56.4365 39.4309 57.2466 39.1562C58.0568 38.8816 58.7502 38.4697 59.3269 37.9205C59.9036 37.3712 60.343 36.6984 60.6451 35.902L68.7601 36.4375C68.3482 38.3873 67.5037 40.09 66.2267 41.5455C64.9635 42.9872 63.3295 44.1132 61.3248 44.9233C59.3337 45.7197 57.0338 46.1179 54.4249 46.1179ZM82.9455 27.2102V45.5H74.1713V13.8636H82.5336V19.4453H82.9043C83.6046 17.6053 84.7786 16.1499 86.4263 15.0788C88.074 13.9941 90.0719 13.4517 92.4199 13.4517C94.6169 13.4517 96.5324 13.9323 98.1664 14.8935C99.8004 15.8546 101.07 17.2277 101.977 19.0128C102.883 20.7841 103.336 22.8987 103.336 25.3565V45.5H94.562V26.9219C94.5757 24.9858 94.0814 23.4754 93.079 22.3906C92.0766 21.2921 90.6967 20.7429 88.9391 20.7429C87.7582 20.7429 86.7147 20.9969 85.8084 21.505C84.9159 22.013 84.2156 22.7545 83.7076 23.7294C83.2132 24.6906 82.9592 25.8509 82.9455 27.2102ZM121.409 46.0149C119.006 46.0149 116.83 45.397 114.88 44.1612C112.944 42.9117 111.406 41.0786 110.266 38.6619C109.14 36.2315 108.577 33.2519 108.577 29.723C108.577 26.098 109.161 23.084 110.328 20.6811C111.495 18.2644 113.047 16.4588 114.983 15.2642C116.933 14.0559 119.068 13.4517 121.388 13.4517C123.16 13.4517 124.636 13.7538 125.817 14.358C127.011 14.9484 127.973 15.6899 128.7 16.5824C129.442 17.4612 130.005 18.3262 130.389 19.1776H130.657V3.31818H139.411V45.5H130.76V40.4332H130.389C129.977 41.312 129.394 42.1839 128.638 43.049C127.897 43.9003 126.929 44.6075 125.734 45.1705C124.554 45.7334 123.112 46.0149 121.409 46.0149ZM124.19 39.0327C125.604 39.0327 126.799 38.6482 127.773 37.8793C128.762 37.0966 129.517 36.005 130.039 34.6044C130.575 33.2038 130.842 31.563 130.842 29.6818C130.842 27.8007 130.581 26.1667 130.06 24.7798C129.538 23.393 128.783 22.322 127.794 21.5668C126.805 20.8116 125.604 20.4339 124.19 20.4339C122.748 20.4339 121.533 20.8253 120.544 21.608C119.555 22.3906 118.807 23.4754 118.299 24.8622C117.791 26.2491 117.537 27.8556 117.537 29.6818C117.537 31.5218 117.791 33.1489 118.299 34.5632C118.821 35.9638 119.569 37.0623 120.544 37.8587C121.533 38.6413 122.748 39.0327 124.19 39.0327ZM159.048 45.5V13.8636H167.822V45.5H159.048ZM163.456 9.78551C162.152 9.78551 161.032 9.35298 160.099 8.48792C159.179 7.60914 158.719 6.55871 158.719 5.33665C158.719 4.12831 159.179 3.09162 160.099 2.22656C161.032 1.34777 162.152 0.908378 163.456 0.908378C164.76 0.908378 165.873 1.34777 166.793 2.22656C167.726 3.09162 168.193 4.12831 168.193 5.33665C168.193 6.55871 167.726 7.60914 166.793 8.48792C165.873 9.35298 164.76 9.78551 163.456 9.78551ZM183.125 27.2102V45.5H174.351V13.8636H182.713V19.4453H183.084C183.784 17.6053 184.958 16.1499 186.606 15.0788C188.254 13.9941 190.252 13.4517 192.6 13.4517C194.797 13.4517 196.712 13.9323 198.346 14.8935C199.98 15.8546 201.25 17.2277 202.156 19.0128C203.063 20.7841 203.516 22.8987 203.516 25.3565V45.5H194.742V26.9219C194.755 24.9858 194.261 23.4754 193.259 22.3906C192.256 21.2921 190.876 20.7429 189.119 20.7429C187.938 20.7429 186.894 20.9969 185.988 21.505C185.096 22.013 184.395 22.7545 183.887 23.7294C183.393 24.6906 183.139 25.8509 183.125 27.2102ZM236.254 22.8849L228.221 23.3793C228.084 22.6927 227.788 22.0748 227.335 21.5256C226.882 20.9626 226.285 20.5163 225.543 20.1868C224.816 19.8435 223.944 19.6719 222.928 19.6719C221.568 19.6719 220.422 19.9602 219.488 20.5369C218.554 21.0999 218.087 21.8551 218.087 22.8026C218.087 23.5578 218.389 24.1963 218.994 24.718C219.598 25.2398 220.634 25.6586 222.104 25.9744L227.83 27.1278C230.905 27.7595 233.198 28.7756 234.709 30.1761C236.219 31.5767 236.974 33.4167 236.974 35.696C236.974 37.7694 236.363 39.5888 235.141 41.1541C233.933 42.7195 232.272 43.9415 230.157 44.8203C228.056 45.6854 225.633 46.1179 222.886 46.1179C218.698 46.1179 215.362 45.246 212.876 43.5021C210.405 41.7446 208.956 39.3554 208.531 36.3345L217.161 35.8814C217.421 37.1584 218.053 38.1333 219.055 38.8061C220.058 39.4652 221.342 39.7947 222.907 39.7947C224.445 39.7947 225.681 39.4995 226.614 38.9091C227.562 38.3049 228.042 37.5291 228.056 36.5817C228.042 35.7853 227.706 35.133 227.047 34.625C226.388 34.1032 225.372 33.705 223.999 33.4304L218.52 32.3388C215.43 31.7209 213.13 30.6499 211.62 29.1257C210.123 27.6016 209.375 25.6586 209.375 23.2969C209.375 21.2647 209.924 19.514 211.023 18.0447C212.135 16.5755 213.693 15.4427 215.698 14.6463C217.717 13.8499 220.078 13.4517 222.783 13.4517C226.779 13.4517 229.924 14.2962 232.217 15.9851C234.523 17.674 235.869 19.974 236.254 22.8849ZM258.827 13.8636V20.4545H239.775V13.8636H258.827ZM244.1 6.28409H252.874V35.7784C252.874 36.5885 252.998 37.2202 253.245 37.6733C253.492 38.1127 253.836 38.4216 254.275 38.6001C254.728 38.7786 255.25 38.8679 255.84 38.8679C256.252 38.8679 256.664 38.8336 257.076 38.7649C257.488 38.6825 257.804 38.6207 258.024 38.5795L259.404 45.1087C258.964 45.246 258.346 45.4039 257.55 45.5824C256.753 45.7746 255.785 45.8913 254.646 45.9325C252.531 46.0149 250.677 45.7334 249.085 45.0881C247.506 44.4427 246.277 43.4403 245.398 42.081C244.519 40.7216 244.087 39.0052 244.1 36.9318V6.28409ZM273.064 46.0973C271.045 46.0973 269.247 45.7472 267.667 45.0469C266.088 44.3329 264.839 43.2824 263.919 41.8956C263.013 40.495 262.559 38.7512 262.559 36.6641C262.559 34.9065 262.882 33.4304 263.528 32.2358C264.173 31.0412 265.052 30.08 266.164 29.3523C267.276 28.6245 268.539 28.0753 269.954 27.7045C271.382 27.3338 272.878 27.0729 274.444 26.9219C276.284 26.7296 277.767 26.5511 278.893 26.3864C280.019 26.2079 280.836 25.947 281.344 25.6037C281.852 25.2604 282.106 24.7524 282.106 24.0795V23.956C282.106 22.6515 281.694 21.6423 280.87 20.9283C280.06 20.2143 278.906 19.8572 277.41 19.8572C275.831 19.8572 274.574 20.2074 273.64 20.9077C272.707 21.5942 272.089 22.4593 271.787 23.5028L263.672 22.8438C264.084 20.9214 264.894 19.2599 266.102 17.8594C267.31 16.4451 268.869 15.3603 270.778 14.6051C272.7 13.8362 274.924 13.4517 277.451 13.4517C279.208 13.4517 280.89 13.6577 282.497 14.0696C284.117 14.4815 285.552 15.12 286.802 15.9851C288.065 16.8501 289.06 17.9624 289.788 19.3217C290.516 20.6674 290.88 22.2808 290.88 24.1619V45.5H282.559V41.1129H282.312C281.804 42.1016 281.124 42.9735 280.273 43.7287C279.421 44.4702 278.398 45.0537 277.204 45.4794C276.009 45.8913 274.629 46.0973 273.064 46.0973ZM275.577 40.0419C276.867 40.0419 278.007 39.7879 278.996 39.2798C279.984 38.758 280.76 38.0578 281.323 37.179C281.886 36.3002 282.167 35.3047 282.167 34.1925V30.8352C281.893 31.0137 281.515 31.1785 281.035 31.3295C280.568 31.4669 280.039 31.5973 279.449 31.7209C278.858 31.8307 278.268 31.9337 277.677 32.0298C277.087 32.1122 276.551 32.1877 276.071 32.2564C275.041 32.4074 274.142 32.6477 273.373 32.9773C272.604 33.3068 272.006 33.7531 271.581 34.3161C271.155 34.8653 270.942 35.5518 270.942 36.3757C270.942 37.5703 271.375 38.4834 272.24 39.1151C273.119 39.733 274.231 40.0419 275.577 40.0419ZM305.961 27.2102V45.5H297.187V13.8636H305.549V19.4453H305.92C306.62 17.6053 307.794 16.1499 309.442 15.0788C311.09 13.9941 313.088 13.4517 315.436 13.4517C317.633 13.4517 319.548 13.9323 321.182 14.8935C322.816 15.8546 324.086 17.2277 324.992 19.0128C325.899 20.7841 326.352 22.8987 326.352 25.3565V45.5H317.578V26.9219C317.591 24.9858 317.097 23.4754 316.095 22.3906C315.092 21.2921 313.712 20.7429 311.955 20.7429C310.774 20.7429 309.73 20.9969 308.824 21.505C307.932 22.013 307.231 22.7545 306.723 23.7294C306.229 24.6906 305.975 25.8509 305.961 27.2102ZM349.594 13.8636V20.4545H330.543V13.8636H349.594ZM334.868 6.28409H343.642V35.7784C343.642 36.5885 343.766 37.2202 344.013 37.6733C344.26 38.1127 344.603 38.4216 345.043 38.6001C345.496 38.7786 346.018 38.8679 346.608 38.8679C347.02 38.8679 347.432 38.8336 347.844 38.7649C348.256 38.6825 348.571 38.6207 348.791 38.5795L350.171 45.1087C349.732 45.246 349.114 45.4039 348.317 45.5824C347.521 45.7746 346.553 45.8913 345.413 45.9325C343.299 46.0149 341.445 45.7334 339.852 45.0881C338.273 44.4427 337.044 43.4403 336.165 42.081C335.287 40.7216 334.854 39.0052 334.868 36.9318V6.28409ZM11.2756 108.21V126.5H2.50142V84.3182H11.0284V100.445H11.3991C12.1132 98.5779 13.2666 97.1155 14.8594 96.0582C16.4522 94.9872 18.45 94.4517 20.853 94.4517C23.05 94.4517 24.9654 94.9323 26.5994 95.8935C28.2472 96.8409 29.5241 98.2071 30.4304 99.9922C31.3504 101.763 31.8035 103.885 31.7898 106.357V126.5H23.0156V107.922C23.0294 105.972 22.535 104.455 21.5327 103.37C20.544 102.285 19.1572 101.743 17.3722 101.743C16.1776 101.743 15.1203 101.997 14.2003 102.505C13.294 103.013 12.58 103.754 12.0582 104.729C11.5502 105.691 11.2893 106.851 11.2756 108.21ZM52.6124 127.118C49.3581 127.118 46.557 126.459 44.209 125.141C41.8747 123.809 40.0759 121.928 38.8127 119.497C37.5494 117.053 36.9178 114.163 36.9178 110.826C36.9178 107.572 37.5494 104.716 38.8127 102.258C40.0759 99.8 41.8541 97.8845 44.1472 96.5114C46.454 95.1383 49.159 94.4517 52.2623 94.4517C54.3494 94.4517 56.2923 94.7881 58.0911 95.4609C59.9036 96.12 61.4827 97.1155 62.8283 98.4474C64.1877 99.7794 65.245 101.455 66.0002 103.473C66.7554 105.478 67.133 107.826 67.133 110.517V112.927H40.4192V107.489H58.8738C58.8738 106.226 58.5991 105.107 58.0499 104.132C57.5007 103.157 56.7386 102.395 55.7637 101.846C54.8025 101.283 53.6834 101.001 52.4064 101.001C51.0745 101.001 49.8936 101.31 48.8638 101.928C47.8477 102.532 47.0513 103.349 46.4746 104.379C45.8979 105.395 45.6027 106.528 45.589 107.778V112.947C45.589 114.513 45.8773 115.865 46.454 117.005C47.0444 118.145 47.8752 119.023 48.9462 119.641C50.0172 120.259 51.2873 120.568 52.7566 120.568C53.7315 120.568 54.624 120.431 55.4341 120.156C56.2443 119.882 56.9377 119.47 57.5144 118.92C58.0911 118.371 58.5305 117.698 58.8326 116.902L66.9476 117.438C66.5357 119.387 65.6912 121.09 64.4142 122.545C63.151 123.987 61.517 125.113 59.5123 125.923C57.5212 126.72 55.2213 127.118 52.6124 127.118ZM81.3801 127.097C79.3617 127.097 77.5629 126.747 75.9838 126.047C74.4048 125.333 73.1552 124.282 72.2353 122.896C71.329 121.495 70.8759 119.751 70.8759 117.664C70.8759 115.906 71.1986 114.43 71.8439 113.236C72.4893 112.041 73.3681 111.08 74.4803 110.352C75.5925 109.625 76.8558 109.075 78.2701 108.705C79.6981 108.334 81.1948 108.073 82.7601 107.922C84.6001 107.73 86.083 107.551 87.209 107.386C88.3349 107.208 89.1519 106.947 89.66 106.604C90.168 106.26 90.4221 105.752 90.4221 105.08V104.956C90.4221 103.652 90.0101 102.642 89.1863 101.928C88.3761 101.214 87.2227 100.857 85.726 100.857C84.147 100.857 82.8906 101.207 81.9569 101.908C81.0231 102.594 80.4052 103.459 80.1032 104.503L71.9881 103.844C72.4 101.921 73.2102 100.26 74.4185 98.8594C75.6268 97.4451 77.1853 96.3603 79.0939 95.6051C81.0163 94.8362 83.2407 94.4517 85.7672 94.4517C87.5248 94.4517 89.2069 94.6577 90.8134 95.0696C92.4337 95.4815 93.8685 96.12 95.1181 96.9851C96.3813 97.8501 97.3768 98.9624 98.1046 100.322C98.8323 101.667 99.1962 103.281 99.1962 105.162V126.5H90.8752V122.113H90.628C90.12 123.102 89.4403 123.973 88.589 124.729C87.7376 125.47 86.7147 126.054 85.5201 126.479C84.3255 126.891 82.9455 127.097 81.3801 127.097ZM83.8929 121.042C85.1837 121.042 86.3233 120.788 87.312 120.28C88.3006 119.758 89.0764 119.058 89.6394 118.179C90.2024 117.3 90.4838 116.305 90.4838 115.192V111.835C90.2092 112.014 89.8316 112.179 89.351 112.33C88.8842 112.467 88.3555 112.597 87.7651 112.721C87.1747 112.831 86.5842 112.934 85.9938 113.03C85.4034 113.112 84.8678 113.188 84.3873 113.256C83.3574 113.407 82.458 113.648 81.6891 113.977C80.9202 114.307 80.3229 114.753 79.8972 115.316C79.4715 115.865 79.2587 116.552 79.2587 117.376C79.2587 118.57 79.6912 119.483 80.5563 120.115C81.4351 120.733 82.5473 121.042 83.8929 121.042ZM105.503 126.5V94.8636H114.01V100.384H114.339C114.916 98.42 115.884 96.937 117.243 95.9347C118.603 94.9186 120.168 94.4105 121.939 94.4105C122.379 94.4105 122.853 94.438 123.361 94.4929C123.869 94.5478 124.315 94.6233 124.699 94.7195V102.505C124.287 102.381 123.718 102.272 122.99 102.175C122.262 102.079 121.596 102.031 120.992 102.031C119.701 102.031 118.548 102.313 117.532 102.876C116.529 103.425 115.733 104.194 115.143 105.183C114.566 106.171 114.278 107.311 114.278 108.602V126.5H105.503ZM147.149 94.8636V101.455H128.097V94.8636H147.149ZM132.423 87.2841H141.197V116.778C141.197 117.589 141.32 118.22 141.567 118.673C141.815 119.113 142.158 119.422 142.597 119.6C143.05 119.779 143.572 119.868 144.163 119.868C144.575 119.868 144.987 119.834 145.398 119.765C145.81 119.683 146.126 119.621 146.346 119.58L147.726 126.109C147.286 126.246 146.669 126.404 145.872 126.582C145.076 126.775 144.108 126.891 142.968 126.933C140.853 127.015 139 126.733 137.407 126.088C135.828 125.443 134.599 124.44 133.72 123.081C132.841 121.722 132.409 120.005 132.423 117.932V87.2841ZM169.377 94.8636V101.455H149.852V94.8636H169.377ZM154.321 126.5V92.5774C154.321 90.2843 154.768 88.3826 155.66 86.8722C156.566 85.3617 157.802 84.2289 159.368 83.4737C160.933 82.7185 162.711 82.3409 164.702 82.3409C166.048 82.3409 167.277 82.4439 168.389 82.6499C169.515 82.8558 170.352 83.0412 170.902 83.206L169.336 89.7969C168.993 89.687 168.567 89.584 168.059 89.4879C167.565 89.3918 167.057 89.3438 166.535 89.3438C165.244 89.3438 164.345 89.6458 163.837 90.25C163.329 90.8404 163.075 91.6712 163.075 92.7422V126.5H154.321ZM187.523 127.118C184.268 127.118 181.467 126.459 179.119 125.141C176.785 123.809 174.986 121.928 173.723 119.497C172.46 117.053 171.828 114.163 171.828 110.826C171.828 107.572 172.46 104.716 173.723 102.258C174.986 99.8 176.764 97.8845 179.057 96.5114C181.364 95.1383 184.069 94.4517 187.172 94.4517C189.26 94.4517 191.202 94.7881 193.001 95.4609C194.814 96.12 196.393 97.1155 197.738 98.4474C199.098 99.7794 200.155 101.455 200.91 103.473C201.666 105.478 202.043 107.826 202.043 110.517V112.927H175.329V107.489H193.784C193.784 106.226 193.509 105.107 192.96 104.132C192.411 103.157 191.649 102.395 190.674 101.846C189.713 101.283 188.594 101.001 187.317 101.001C185.985 101.001 184.804 101.31 183.774 101.928C182.758 102.532 181.961 103.349 181.385 104.379C180.808 105.395 180.513 106.528 180.499 107.778V112.947C180.499 114.513 180.787 115.865 181.364 117.005C181.955 118.145 182.785 119.023 183.856 119.641C184.927 120.259 186.198 120.568 187.667 120.568C188.642 120.568 189.534 120.431 190.344 120.156C191.154 119.882 191.848 119.47 192.425 118.92C193.001 118.371 193.441 117.698 193.743 116.902L201.858 117.438C201.446 119.387 200.601 121.09 199.324 122.545C198.061 123.987 196.427 125.113 194.422 125.923C192.431 126.72 190.131 127.118 187.523 127.118ZM216.043 84.3182V126.5H207.269V84.3182H216.043ZM239.399 94.8636V101.455H220.347V94.8636H239.399ZM224.673 87.2841H233.447V116.778C233.447 117.589 233.57 118.22 233.817 118.673C234.065 119.113 234.408 119.422 234.847 119.6C235.3 119.779 235.822 119.868 236.413 119.868C236.825 119.868 237.237 119.834 237.648 119.765C238.06 119.683 238.376 119.621 238.596 119.58L239.976 126.109C239.536 126.246 238.919 126.404 238.122 126.582C237.326 126.775 236.358 126.891 235.218 126.933C233.103 127.015 231.25 126.733 229.657 126.088C228.078 125.443 226.849 124.44 225.97 123.081C225.091 121.722 224.659 120.005 224.673 117.932V87.2841ZM257.539 126.5V94.8636H266.045V100.384H266.374C266.951 98.42 267.919 96.937 269.279 95.9347C270.638 94.9186 272.203 94.4105 273.975 94.4105C274.414 94.4105 274.888 94.438 275.396 94.4929C275.904 94.5478 276.35 94.6233 276.735 94.7195V102.505C276.323 102.381 275.753 102.272 275.025 102.175C274.297 102.079 273.631 102.031 273.027 102.031C271.736 102.031 270.583 102.313 269.567 102.876C268.565 103.425 267.768 104.194 267.178 105.183C266.601 106.171 266.313 107.311 266.313 108.602V126.5H257.539ZM293.716 127.118C290.462 127.118 287.661 126.459 285.312 125.141C282.978 123.809 281.179 121.928 279.916 119.497C278.653 117.053 278.021 114.163 278.021 110.826C278.021 107.572 278.653 104.716 279.916 102.258C281.179 99.8 282.958 97.8845 285.251 96.5114C287.558 95.1383 290.263 94.4517 293.366 94.4517C295.453 94.4517 297.396 94.7881 299.195 95.4609C301.007 96.12 302.586 97.1155 303.932 98.4474C305.291 99.7794 306.348 101.455 307.104 103.473C307.859 105.478 308.237 107.826 308.237 110.517V112.927H281.523V107.489H299.977C299.977 106.226 299.703 105.107 299.153 104.132C298.604 103.157 297.842 102.395 296.867 101.846C295.906 101.283 294.787 101.001 293.51 101.001C292.178 101.001 290.997 101.31 289.967 101.928C288.951 102.532 288.155 103.349 287.578 104.379C287.001 105.395 286.706 106.528 286.692 107.778V112.947C286.692 114.513 286.981 115.865 287.558 117.005C288.148 118.145 288.979 119.023 290.05 119.641C291.121 120.259 292.391 120.568 293.86 120.568C294.835 120.568 295.728 120.431 296.538 120.156C297.348 119.882 298.041 119.47 298.618 118.92C299.195 118.371 299.634 117.698 299.936 116.902L308.051 117.438C307.639 119.387 306.795 121.09 305.518 122.545C304.254 123.987 302.621 125.113 300.616 125.923C298.625 126.72 296.325 127.118 293.716 127.118ZM319.477 126.5L310.867 94.8636H319.744L324.646 116.119H324.935L330.043 94.8636H338.755L343.945 115.996H344.213L349.033 94.8636H357.889L349.3 126.5H340.011L334.574 106.604H334.183L328.745 126.5H319.477ZM371.091 127.097C369.073 127.097 367.274 126.747 365.695 126.047C364.116 125.333 362.866 124.282 361.946 122.896C361.04 121.495 360.587 119.751 360.587 117.664C360.587 115.906 360.91 114.43 361.555 113.236C362.2 112.041 363.079 111.08 364.191 110.352C365.303 109.625 366.567 109.075 367.981 108.705C369.409 108.334 370.906 108.073 372.471 107.922C374.311 107.73 375.794 107.551 376.92 107.386C378.046 107.208 378.863 106.947 379.371 106.604C379.879 106.26 380.133 105.752 380.133 105.08V104.956C380.133 103.652 379.721 102.642 378.897 101.928C378.087 101.214 376.934 100.857 375.437 100.857C373.858 100.857 372.602 101.207 371.668 101.908C370.734 102.594 370.116 103.459 369.814 104.503L361.699 103.844C362.111 101.921 362.921 100.26 364.129 98.8594C365.338 97.4451 366.896 96.3603 368.805 95.6051C370.727 94.8362 372.952 94.4517 375.478 94.4517C377.236 94.4517 378.918 94.6577 380.524 95.0696C382.145 95.4815 383.579 96.12 384.829 96.9851C386.092 97.8501 387.088 98.9624 387.816 100.322C388.543 101.667 388.907 103.281 388.907 105.162V126.5H380.586V122.113H380.339C379.831 123.102 379.151 123.973 378.3 124.729C377.449 125.47 376.426 126.054 375.231 126.479C374.036 126.891 372.656 127.097 371.091 127.097ZM373.604 121.042C374.895 121.042 376.034 120.788 377.023 120.28C378.012 119.758 378.787 119.058 379.35 118.179C379.913 117.3 380.195 116.305 380.195 115.192V111.835C379.92 112.014 379.543 112.179 379.062 112.33C378.595 112.467 378.066 112.597 377.476 112.721C376.886 112.831 376.295 112.934 375.705 113.03C375.114 113.112 374.579 113.188 374.098 113.256C373.068 113.407 372.169 113.648 371.4 113.977C370.631 114.307 370.034 114.753 369.608 115.316C369.182 115.865 368.97 116.552 368.97 117.376C368.97 118.57 369.402 119.483 370.267 120.115C371.146 120.733 372.258 121.042 373.604 121.042ZM395.214 126.5V94.8636H403.721V100.384H404.05C404.627 98.42 405.595 96.937 406.954 95.9347C408.314 94.9186 409.879 94.4105 411.65 94.4105C412.09 94.4105 412.564 94.438 413.072 94.4929C413.58 94.5478 414.026 94.6233 414.41 94.7195V102.505C413.998 102.381 413.429 102.272 412.701 102.175C411.973 102.079 411.307 102.031 410.703 102.031C409.412 102.031 408.259 102.313 407.243 102.876C406.24 103.425 405.444 104.194 404.854 105.183C404.277 106.171 403.988 107.311 403.988 108.602V126.5H395.214ZM428.632 127.015C426.229 127.015 424.052 126.397 422.103 125.161C420.167 123.912 418.629 122.079 417.489 119.662C416.363 117.232 415.8 114.252 415.8 110.723C415.8 107.098 416.384 104.084 417.551 101.681C418.718 99.2644 420.27 97.4588 422.206 96.2642C424.155 95.0559 426.291 94.4517 428.611 94.4517C430.382 94.4517 431.859 94.7538 433.039 95.358C434.234 95.9484 435.195 96.6899 435.923 97.5824C436.664 98.4612 437.227 99.3262 437.612 100.178H437.88V84.3182H446.633V126.5H437.983V121.433H437.612C437.2 122.312 436.616 123.184 435.861 124.049C435.12 124.9 434.152 125.607 432.957 126.17C431.776 126.733 430.334 127.015 428.632 127.015ZM431.412 120.033C432.827 120.033 434.021 119.648 434.996 118.879C435.985 118.097 436.74 117.005 437.262 115.604C437.797 114.204 438.065 112.563 438.065 110.682C438.065 108.801 437.804 107.167 437.282 105.78C436.761 104.393 436.005 103.322 435.017 102.567C434.028 101.812 432.827 101.434 431.412 101.434C429.971 101.434 428.755 101.825 427.767 102.608C426.778 103.391 426.03 104.475 425.522 105.862C425.014 107.249 424.76 108.856 424.76 110.682C424.76 112.522 425.014 114.149 425.522 115.563C426.043 116.964 426.792 118.062 427.767 118.859C428.755 119.641 429.971 120.033 431.412 120.033ZM479.67 103.885L471.637 104.379C471.5 103.693 471.204 103.075 470.751 102.526C470.298 101.963 469.701 101.516 468.959 101.187C468.232 100.844 467.36 100.672 466.344 100.672C464.984 100.672 463.838 100.96 462.904 101.537C461.97 102.1 461.503 102.855 461.503 103.803C461.503 104.558 461.805 105.196 462.41 105.718C463.014 106.24 464.05 106.659 465.52 106.974L471.246 108.128C474.321 108.759 476.614 109.776 478.125 111.176C479.635 112.577 480.39 114.417 480.39 116.696C480.39 118.769 479.779 120.589 478.557 122.154C477.349 123.719 475.688 124.942 473.573 125.82C471.472 126.685 469.049 127.118 466.302 127.118C462.114 127.118 458.778 126.246 456.292 124.502C453.821 122.745 452.372 120.355 451.947 117.335L460.577 116.881C460.837 118.158 461.469 119.133 462.471 119.806C463.474 120.465 464.758 120.795 466.323 120.795C467.861 120.795 469.097 120.5 470.03 119.909C470.978 119.305 471.458 118.529 471.472 117.582C471.458 116.785 471.122 116.133 470.463 115.625C469.804 115.103 468.788 114.705 467.415 114.43L461.936 113.339C458.846 112.721 456.546 111.65 455.036 110.126C453.539 108.602 452.791 106.659 452.791 104.297C452.791 102.265 453.34 100.514 454.439 99.0447C455.551 97.5755 457.109 96.4427 459.114 95.6463C461.133 94.8499 463.494 94.4517 466.199 94.4517C470.195 94.4517 473.34 95.2962 475.633 96.9851C477.939 98.674 479.285 100.974 479.67 103.885ZM19.3288 175.864V182.455H0.276989V175.864H19.3288ZM4.60227 168.284H13.3764V197.778C13.3764 198.589 13.5 199.22 13.7472 199.673C13.9943 200.113 14.3376 200.422 14.777 200.6C15.2301 200.779 15.7519 200.868 16.3423 200.868C16.7543 200.868 17.1662 200.834 17.5781 200.765C17.9901 200.683 18.3059 200.621 18.5256 200.58L19.9055 207.109C19.4661 207.246 18.8482 207.404 18.0518 207.582C17.2554 207.775 16.2874 207.891 15.1477 207.933C13.0331 208.015 11.1795 207.733 9.58665 207.088C8.00758 206.443 6.77865 205.44 5.89986 204.081C5.02107 202.722 4.58854 201.005 4.60227 198.932V168.284ZM38.4986 208.118C35.2992 208.118 32.5324 207.438 30.1982 206.079C27.8776 204.706 26.0857 202.797 24.8224 200.353C23.5592 197.895 22.9276 195.046 22.9276 191.805C22.9276 188.537 23.5592 185.681 24.8224 183.237C26.0857 180.779 27.8776 178.871 30.1982 177.511C32.5324 176.138 35.2992 175.452 38.4986 175.452C41.6979 175.452 44.4579 176.138 46.7784 177.511C49.1127 178.871 50.9115 180.779 52.1747 183.237C53.438 185.681 54.0696 188.537 54.0696 191.805C54.0696 195.046 53.438 197.895 52.1747 200.353C50.9115 202.797 49.1127 204.706 46.7784 206.079C44.4579 207.438 41.6979 208.118 38.4986 208.118ZM38.5398 201.321C39.9953 201.321 41.2105 200.909 42.1854 200.085C43.1603 199.248 43.8949 198.108 44.3892 196.666C44.8973 195.224 45.1513 193.584 45.1513 191.744C45.1513 189.904 44.8973 188.263 44.3892 186.821C43.8949 185.379 43.1603 184.24 42.1854 183.402C41.2105 182.564 39.9953 182.146 38.5398 182.146C37.0705 182.146 35.8348 182.564 34.8324 183.402C33.8438 184.24 33.0954 185.379 32.5874 186.821C32.093 188.263 31.8459 189.904 31.8459 191.744C31.8459 193.584 32.093 195.224 32.5874 196.666C33.0954 198.108 33.8438 199.248 34.8324 200.085C35.8348 200.909 37.0705 201.321 38.5398 201.321ZM77.6156 219.364C76.5034 219.364 75.4598 219.274 74.4849 219.096C73.5237 218.931 72.7273 218.718 72.0957 218.457L74.073 211.908C75.1028 212.223 76.0297 212.395 76.8535 212.423C77.6911 212.45 78.412 212.258 79.0162 211.846C79.6341 211.434 80.1352 210.734 80.5197 209.745L81.0346 208.406L69.6859 175.864H78.9132L85.4629 199.097H85.7924L92.4039 175.864H101.693L89.3968 210.919C88.8064 212.622 88.0031 214.105 86.987 215.368C85.9847 216.645 84.7145 217.627 83.1767 218.313C81.6388 219.013 79.7851 219.364 77.6156 219.364ZM118.958 208.118C115.758 208.118 112.991 207.438 110.657 206.079C108.337 204.706 106.545 202.797 105.281 200.353C104.018 197.895 103.387 195.046 103.387 191.805C103.387 188.537 104.018 185.681 105.281 183.237C106.545 180.779 108.337 178.871 110.657 177.511C112.991 176.138 115.758 175.452 118.958 175.452C122.157 175.452 124.917 176.138 127.237 177.511C129.572 178.871 131.37 180.779 132.634 183.237C133.897 185.681 134.529 188.537 134.529 191.805C134.529 195.046 133.897 197.895 132.634 200.353C131.37 202.797 129.572 204.706 127.237 206.079C124.917 207.438 122.157 208.118 118.958 208.118ZM118.999 201.321C120.454 201.321 121.669 200.909 122.644 200.085C123.619 199.248 124.354 198.108 124.848 196.666C125.356 195.224 125.61 193.584 125.61 191.744C125.61 189.904 125.356 188.263 124.848 186.821C124.354 185.379 123.619 184.24 122.644 183.402C121.669 182.564 120.454 182.146 118.999 182.146C117.53 182.146 116.294 182.564 115.291 183.402C114.303 184.24 113.554 185.379 113.046 186.821C112.552 188.263 112.305 189.904 112.305 191.744C112.305 193.584 112.552 195.224 113.046 196.666C113.554 198.108 114.303 199.248 115.291 200.085C116.294 200.909 117.53 201.321 118.999 201.321ZM160.021 194.03V175.864H168.796V207.5H160.372V201.754H160.042C159.328 203.607 158.14 205.097 156.479 206.223C154.831 207.349 152.82 207.912 150.444 207.912C148.329 207.912 146.469 207.431 144.862 206.47C143.256 205.509 141.999 204.143 141.093 202.371C140.201 200.6 139.748 198.479 139.734 196.007V175.864H148.508V194.442C148.522 196.309 149.023 197.785 150.012 198.87C151 199.955 152.325 200.497 153.987 200.497C155.044 200.497 156.033 200.257 156.953 199.776C157.873 199.282 158.614 198.554 159.177 197.593C159.754 196.632 160.035 195.444 160.021 194.03ZM175.314 207.5V175.864H183.82V181.384H184.15C184.727 179.42 185.695 177.937 187.054 176.935C188.413 175.919 189.979 175.411 191.75 175.411C192.189 175.411 192.663 175.438 193.171 175.493C193.679 175.548 194.125 175.623 194.51 175.719V183.505C194.098 183.381 193.528 183.272 192.8 183.175C192.073 183.079 191.407 183.031 190.803 183.031C189.512 183.031 188.358 183.313 187.342 183.876C186.34 184.425 185.544 185.194 184.953 186.183C184.376 187.171 184.088 188.311 184.088 189.602V207.5H175.314ZM228.298 175.864V182.455H209.246V175.864H228.298ZM213.571 168.284H222.345V197.778C222.345 198.589 222.469 199.22 222.716 199.673C222.963 200.113 223.306 200.422 223.746 200.6C224.199 200.779 224.721 200.868 225.311 200.868C225.723 200.868 226.135 200.834 226.547 200.765C226.959 200.683 227.275 200.621 227.494 200.58L228.874 207.109C228.435 207.246 227.817 207.404 227.021 207.582C226.224 207.775 225.256 207.891 224.116 207.933C222.002 208.015 220.148 207.733 218.555 207.088C216.976 206.443 215.747 205.44 214.869 204.081C213.99 202.722 213.557 201.005 213.571 198.932V168.284ZM247.591 208.118C244.337 208.118 241.536 207.459 239.188 206.141C236.853 204.809 235.054 202.928 233.791 200.497C232.528 198.053 231.896 195.163 231.896 191.826C231.896 188.572 232.528 185.716 233.791 183.258C235.054 180.8 236.833 178.884 239.126 177.511C241.433 176.138 244.138 175.452 247.241 175.452C249.328 175.452 251.271 175.788 253.07 176.461C254.882 177.12 256.461 178.116 257.807 179.447C259.166 180.779 260.223 182.455 260.979 184.473C261.734 186.478 262.112 188.826 262.112 191.517V193.927H235.398V188.489H253.852C253.852 187.226 253.578 186.107 253.028 185.132C252.479 184.157 251.717 183.395 250.742 182.846C249.781 182.283 248.662 182.001 247.385 182.001C246.053 182.001 244.872 182.31 243.842 182.928C242.826 183.532 242.03 184.349 241.453 185.379C240.876 186.395 240.581 187.528 240.567 188.778V193.947C240.567 195.513 240.856 196.865 241.433 198.005C242.023 199.145 242.854 200.023 243.925 200.641C244.996 201.259 246.266 201.568 247.735 201.568C248.71 201.568 249.603 201.431 250.413 201.156C251.223 200.882 251.916 200.47 252.493 199.92C253.07 199.371 253.509 198.698 253.811 197.902L261.926 198.438C261.514 200.387 260.67 202.09 259.393 203.545C258.129 204.987 256.496 206.113 254.491 206.923C252.5 207.72 250.2 208.118 247.591 208.118ZM276.359 208.097C274.34 208.097 272.541 207.747 270.962 207.047C269.383 206.333 268.134 205.282 267.214 203.896C266.308 202.495 265.854 200.751 265.854 198.664C265.854 196.906 266.177 195.43 266.822 194.236C267.468 193.041 268.347 192.08 269.459 191.352C270.571 190.625 271.834 190.075 273.249 189.705C274.677 189.334 276.173 189.073 277.739 188.922C279.579 188.73 281.062 188.551 282.188 188.386C283.313 188.208 284.13 187.947 284.638 187.604C285.147 187.26 285.401 186.752 285.401 186.08V185.956C285.401 184.652 284.989 183.642 284.165 182.928C283.355 182.214 282.201 181.857 280.705 181.857C279.125 181.857 277.869 182.207 276.935 182.908C276.002 183.594 275.384 184.459 275.082 185.503L266.967 184.844C267.379 182.921 268.189 181.26 269.397 179.859C270.605 178.445 272.164 177.36 274.072 176.605C275.995 175.836 278.219 175.452 280.746 175.452C282.503 175.452 284.185 175.658 285.792 176.07C287.412 176.482 288.847 177.12 290.097 177.985C291.36 178.85 292.355 179.962 293.083 181.322C293.811 182.667 294.175 184.281 294.175 186.162V207.5H285.854V203.113H285.607C285.098 204.102 284.419 204.973 283.567 205.729C282.716 206.47 281.693 207.054 280.499 207.479C279.304 207.891 277.924 208.097 276.359 208.097ZM278.871 202.042C280.162 202.042 281.302 201.788 282.29 201.28C283.279 200.758 284.055 200.058 284.618 199.179C285.181 198.3 285.462 197.305 285.462 196.192V192.835C285.188 193.014 284.81 193.179 284.33 193.33C283.863 193.467 283.334 193.597 282.744 193.721C282.153 193.831 281.563 193.934 280.972 194.03C280.382 194.112 279.846 194.188 279.366 194.256C278.336 194.407 277.437 194.648 276.668 194.977C275.899 195.307 275.301 195.753 274.876 196.316C274.45 196.865 274.237 197.552 274.237 198.376C274.237 199.57 274.67 200.483 275.535 201.115C276.414 201.733 277.526 202.042 278.871 202.042ZM314.776 208.118C311.535 208.118 308.748 207.431 306.414 206.058C304.093 204.671 302.308 202.749 301.059 200.291C299.823 197.833 299.205 195.005 299.205 191.805C299.205 188.565 299.83 185.723 301.079 183.278C302.342 180.821 304.134 178.905 306.455 177.532C308.775 176.145 311.535 175.452 314.735 175.452C317.495 175.452 319.911 175.953 321.985 176.955C324.058 177.958 325.699 179.365 326.907 181.178C328.116 182.99 328.782 185.118 328.905 187.562H320.625C320.392 185.983 319.774 184.713 318.772 183.752C317.783 182.777 316.485 182.29 314.879 182.29C313.52 182.29 312.332 182.661 311.316 183.402C310.313 184.13 309.531 185.194 308.968 186.594C308.405 187.995 308.123 189.691 308.123 191.682C308.123 193.7 308.398 195.417 308.947 196.831C309.51 198.245 310.3 199.323 311.316 200.065C312.332 200.806 313.52 201.177 314.879 201.177C315.881 201.177 316.781 200.971 317.577 200.559C318.387 200.147 319.053 199.55 319.575 198.767C320.11 197.971 320.461 197.016 320.625 195.904H328.905C328.768 198.321 328.109 200.449 326.928 202.289C325.761 204.115 324.147 205.543 322.088 206.573C320.028 207.603 317.591 208.118 314.776 208.118ZM342.797 189.21V207.5H334.023V165.318H342.55V181.445H342.921C343.635 179.578 344.788 178.116 346.381 177.058C347.974 175.987 349.972 175.452 352.374 175.452C354.571 175.452 356.487 175.932 358.121 176.893C359.769 177.841 361.046 179.207 361.952 180.992C362.872 182.763 363.325 184.885 363.311 187.357V207.5H354.537V188.922C354.551 186.972 354.057 185.455 353.054 184.37C352.066 183.285 350.679 182.743 348.894 182.743C347.699 182.743 346.642 182.997 345.722 183.505C344.816 184.013 344.102 184.754 343.58 185.729C343.072 186.691 342.811 187.851 342.797 189.21ZM384.134 208.118C380.88 208.118 378.078 207.459 375.73 206.141C373.396 204.809 371.597 202.928 370.334 200.497C369.071 198.053 368.439 195.163 368.439 191.826C368.439 188.572 369.071 185.716 370.334 183.258C371.597 180.8 373.376 178.884 375.669 177.511C377.975 176.138 380.681 175.452 383.784 175.452C385.871 175.452 387.814 175.788 389.613 176.461C391.425 177.12 393.004 178.116 394.35 179.447C395.709 180.779 396.766 182.455 397.522 184.473C398.277 186.478 398.654 188.826 398.654 191.517V193.927H371.941V188.489H390.395C390.395 187.226 390.121 186.107 389.571 185.132C389.022 184.157 388.26 183.395 387.285 182.846C386.324 182.283 385.205 182.001 383.928 182.001C382.596 182.001 381.415 182.31 380.385 182.928C379.369 183.532 378.573 184.349 377.996 185.379C377.419 186.395 377.124 187.528 377.11 188.778V193.947C377.11 195.513 377.399 196.865 377.975 198.005C378.566 199.145 379.397 200.023 380.468 200.641C381.539 201.259 382.809 201.568 384.278 201.568C385.253 201.568 386.145 201.431 386.956 201.156C387.766 200.882 388.459 200.47 389.036 199.92C389.613 199.371 390.052 198.698 390.354 197.902L398.469 198.438C398.057 200.387 397.213 202.09 395.936 203.545C394.672 204.987 393.038 206.113 391.034 206.923C389.043 207.72 386.743 208.118 384.134 208.118ZM403.88 207.5V175.864H412.387V181.384H412.716C413.293 179.42 414.261 177.937 415.62 176.935C416.98 175.919 418.545 175.411 420.316 175.411C420.756 175.411 421.23 175.438 421.738 175.493C422.246 175.548 422.692 175.623 423.076 175.719V183.505C422.664 183.381 422.095 183.272 421.367 183.175C420.639 183.079 419.973 183.031 419.369 183.031C418.078 183.031 416.925 183.313 415.909 183.876C414.906 184.425 414.11 185.194 413.52 186.183C412.943 187.171 412.654 188.311 412.654 189.602V207.5H403.88ZM453.435 184.885L445.403 185.379C445.265 184.693 444.97 184.075 444.517 183.526C444.064 182.963 443.466 182.516 442.725 182.187C441.997 181.844 441.125 181.672 440.109 181.672C438.75 181.672 437.603 181.96 436.67 182.537C435.736 183.1 435.269 183.855 435.269 184.803C435.269 185.558 435.571 186.196 436.175 186.718C436.779 187.24 437.816 187.659 439.285 187.974L445.011 189.128C448.087 189.759 450.38 190.776 451.89 192.176C453.401 193.577 454.156 195.417 454.156 197.696C454.156 199.769 453.545 201.589 452.323 203.154C451.115 204.719 449.453 205.942 447.339 206.82C445.238 207.685 442.814 208.118 440.068 208.118C435.88 208.118 432.543 207.246 430.058 205.502C427.586 203.745 426.138 201.355 425.712 198.335L434.342 197.881C434.603 199.158 435.235 200.133 436.237 200.806C437.239 201.465 438.523 201.795 440.089 201.795C441.626 201.795 442.862 201.5 443.796 200.909C444.743 200.305 445.224 199.529 445.238 198.582C445.224 197.785 444.888 197.133 444.229 196.625C443.569 196.103 442.553 195.705 441.18 195.43L435.702 194.339C432.612 193.721 430.312 192.65 428.802 191.126C427.305 189.602 426.557 187.659 426.557 185.297C426.557 183.265 427.106 181.514 428.204 180.045C429.317 178.576 430.875 177.443 432.88 176.646C434.898 175.85 437.26 175.452 439.965 175.452C443.961 175.452 447.105 176.296 449.398 177.985C451.705 179.674 453.051 181.974 453.435 184.885Z" fill="#3E1C96"/>
</svg>
