<svg width="141" height="44" viewBox="0 0 141 44" fill="none" xmlns="http://www.w3.org/2000/svg">
<path d="M1.23295 39V28.8182H4.6733C5.46875 28.8182 6.12169 28.9541 6.6321 29.2259C7.14252 29.4943 7.52036 29.8639 7.76562 30.3345C8.01089 30.8052 8.13352 31.3404 8.13352 31.9403C8.13352 32.5402 8.01089 33.0722 7.76562 33.5362C7.52036 34.0002 7.14418 34.3648 6.63707 34.63C6.12997 34.8918 5.48201 35.0227 4.69318 35.0227H1.90909V33.9091H4.65341C5.19697 33.9091 5.63447 33.8295 5.96591 33.6705C6.30066 33.5114 6.54261 33.286 6.69176 32.9943C6.84422 32.6993 6.92045 32.348 6.92045 31.9403C6.92045 31.5327 6.84422 31.1764 6.69176 30.8714C6.5393 30.5665 6.29569 30.3312 5.96094 30.1655C5.62618 29.9964 5.18371 29.9119 4.63352 29.9119H2.46591V39H1.23295ZM6.02557 34.4261L8.53125 39H7.09943L4.63352 34.4261H6.02557ZM13.1486 39.1591C12.4128 39.1591 11.7781 38.9967 11.2445 38.6719C10.7142 38.3438 10.3049 37.8864 10.0165 37.2997C9.73147 36.7098 9.58896 36.0237 9.58896 35.2415C9.58896 34.4593 9.73147 33.7699 10.0165 33.1733C10.3049 32.5734 10.7059 32.1061 11.2196 31.7713C11.7367 31.4332 12.3399 31.2642 13.0293 31.2642C13.427 31.2642 13.8198 31.3305 14.2076 31.4631C14.5953 31.5956 14.9483 31.8111 15.2665 32.1094C15.5847 32.4044 15.8382 32.7955 16.0272 33.2827C16.2161 33.7699 16.3105 34.3698 16.3105 35.0824V35.5795H10.4242V34.5653H15.1174C15.1174 34.1345 15.0312 33.75 14.8588 33.4119C14.6898 33.0739 14.4479 32.8071 14.133 32.6115C13.8214 32.416 13.4535 32.3182 13.0293 32.3182C12.562 32.3182 12.1576 32.4342 11.8162 32.6662C11.4782 32.8949 11.218 33.1932 11.0357 33.5611C10.8534 33.929 10.7623 34.3234 10.7623 34.7443V35.4205C10.7623 35.9972 10.8617 36.486 11.0605 36.8871C11.2627 37.2848 11.5428 37.5881 11.9007 37.7969C12.2587 38.0024 12.6747 38.1051 13.1486 38.1051C13.4569 38.1051 13.7353 38.062 13.9838 37.9759C14.2357 37.8864 14.4528 37.7538 14.6351 37.5781C14.8174 37.3991 14.9583 37.1771 15.0577 36.9119L16.1912 37.2301C16.0719 37.6146 15.8714 37.9527 15.5897 38.2443C15.3079 38.5327 14.9599 38.758 14.5456 38.9205C14.1313 39.0795 13.6657 39.1591 13.1486 39.1591ZM19.8255 39L17.4988 31.3636H18.7317L20.3823 37.2102H20.4618L22.0925 31.3636H23.3453L24.9561 37.1903H25.0357L26.6863 31.3636H27.9192L25.5925 39H24.4391L22.7686 33.1335H22.6493L20.9789 39H19.8255ZM31.7175 39.179C31.2336 39.179 30.7944 39.0878 30.4 38.9055C30.0056 38.7199 29.6924 38.4531 29.4604 38.1051C29.2284 37.7538 29.1124 37.3295 29.1124 36.8324C29.1124 36.3949 29.1986 36.0402 29.3709 35.7685C29.5433 35.4934 29.7736 35.2779 30.062 35.1222C30.3503 34.9664 30.6685 34.8504 31.0165 34.7741C31.3678 34.6946 31.7208 34.6316 32.0755 34.5852C32.5395 34.5256 32.9157 34.4808 33.204 34.451C33.4957 34.4179 33.7078 34.3632 33.8404 34.2869C33.9763 34.2107 34.0442 34.0781 34.0442 33.8892V33.8494C34.0442 33.3589 33.91 32.9777 33.6415 32.706C33.3764 32.4342 32.9737 32.2983 32.4334 32.2983C31.8733 32.2983 31.4341 32.4209 31.1159 32.6662C30.7978 32.9115 30.574 33.1733 30.4448 33.4517L29.3311 33.054C29.53 32.59 29.7952 32.2287 30.1266 31.9702C30.4614 31.7083 30.8259 31.526 31.2203 31.4233C31.6181 31.3172 32.0092 31.2642 32.3936 31.2642C32.6389 31.2642 32.9206 31.294 33.2388 31.3537C33.5603 31.41 33.8702 31.5277 34.1685 31.7067C34.4701 31.8857 34.7203 32.1558 34.9192 32.517C35.1181 32.8783 35.2175 33.3622 35.2175 33.9688V39H34.0442V37.9659H33.9846C33.905 38.1316 33.7724 38.3089 33.5868 38.4979C33.4012 38.6868 33.1543 38.8475 32.8461 38.9801C32.5378 39.1127 32.1616 39.179 31.7175 39.179ZM31.8965 38.125C32.3605 38.125 32.7516 38.0339 33.0698 37.8516C33.3913 37.6693 33.6332 37.4339 33.7956 37.1456C33.9614 36.8572 34.0442 36.554 34.0442 36.2358V35.1619C33.9945 35.2216 33.8851 35.2763 33.7161 35.326C33.5504 35.3724 33.3581 35.4138 33.1394 35.4503C32.9239 35.4834 32.7135 35.5133 32.508 35.5398C32.3058 35.563 32.1417 35.5829 32.0158 35.5994C31.7109 35.6392 31.4258 35.7038 31.1607 35.7933C30.8989 35.8795 30.6867 36.0104 30.5243 36.1861C30.3652 36.3584 30.2857 36.5937 30.2857 36.892C30.2857 37.2997 30.4365 37.608 30.7381 37.8168C31.043 38.0223 31.4292 38.125 31.8965 38.125ZM37.359 39V31.3636H38.4925V32.517H38.5721C38.7113 32.1392 38.9632 31.8326 39.3278 31.5973C39.6924 31.362 40.1033 31.2443 40.5607 31.2443C40.6469 31.2443 40.7546 31.246 40.8839 31.2493C41.0131 31.2526 41.1109 31.2576 41.1772 31.2642V32.4574C41.1374 32.4474 41.0463 32.4325 40.9038 32.4126C40.7646 32.3894 40.6171 32.3778 40.4613 32.3778C40.0901 32.3778 39.7586 32.4557 39.467 32.6115C39.1786 32.764 38.9499 32.9761 38.7809 33.2479C38.6152 33.5163 38.5323 33.8229 38.5323 34.1676V39H37.359ZM45.2191 39.1591C44.5827 39.1591 44.021 38.9983 43.5337 38.6768C43.0465 38.352 42.6654 37.8946 42.3903 37.3047C42.1152 36.7114 41.9776 36.0104 41.9776 35.2017C41.9776 34.3996 42.1152 33.7036 42.3903 33.1136C42.6654 32.5237 43.0482 32.0679 43.5387 31.7464C44.0292 31.425 44.596 31.2642 45.239 31.2642C45.7362 31.2642 46.1289 31.3471 46.4173 31.5128C46.7089 31.6752 46.931 31.8608 47.0835 32.0696C47.2392 32.2751 47.3602 32.4441 47.4464 32.5767H47.5458V28.8182H48.7191V39H47.5856V37.8267H47.4464C47.3602 37.9659 47.2376 38.1416 47.0785 38.3537C46.9194 38.5625 46.6924 38.7498 46.3974 38.9155C46.1024 39.0779 45.7096 39.1591 45.2191 39.1591ZM45.3782 38.1051C45.8488 38.1051 46.2466 37.9825 46.5714 37.7372C46.8962 37.4886 47.1431 37.1456 47.3121 36.7081C47.4812 36.2673 47.5657 35.7585 47.5657 35.1818C47.5657 34.6117 47.4828 34.1129 47.3171 33.6854C47.1514 33.2545 46.9061 32.9197 46.5813 32.6811C46.2565 32.4392 45.8555 32.3182 45.3782 32.3182C44.881 32.3182 44.4667 32.4458 44.1353 32.701C43.8072 32.9529 43.5603 33.2959 43.3945 33.7301C43.2321 34.161 43.1509 34.6449 43.1509 35.1818C43.1509 35.7254 43.2338 36.2192 43.3995 36.6634C43.5685 37.1042 43.8171 37.4555 44.1452 37.7173C44.4767 37.9759 44.8877 38.1051 45.3782 38.1051ZM55.7241 41.8636C55.5252 41.8636 55.3479 41.8471 55.1921 41.8139C55.0363 41.7841 54.9286 41.7543 54.869 41.7244L55.1673 40.6903C55.4523 40.7633 55.7042 40.7898 55.9229 40.7699C56.1417 40.75 56.3356 40.6522 56.5046 40.4766C56.677 40.3042 56.8344 40.0241 56.9769 39.6364L57.1957 39.0398L54.3718 31.3636H55.6445L57.7525 37.4489H57.832L59.94 31.3636H61.2127L57.9712 40.1136C57.8254 40.508 57.6448 40.8345 57.4293 41.093C57.2139 41.3549 56.9637 41.5488 56.6786 41.6747C56.3969 41.8007 56.0787 41.8636 55.7241 41.8636ZM65.5902 39.1591C64.9008 39.1591 64.2959 38.995 63.7756 38.6669C63.2585 38.3388 62.8542 37.8797 62.5625 37.2898C62.2741 36.6998 62.13 36.0104 62.13 35.2216C62.13 34.4261 62.2741 33.7318 62.5625 33.1385C62.8542 32.5452 63.2585 32.0845 63.7756 31.7564C64.2959 31.4283 64.9008 31.2642 65.5902 31.2642C66.2796 31.2642 66.8828 31.4283 67.3999 31.7564C67.9202 32.0845 68.3246 32.5452 68.6129 33.1385C68.9046 33.7318 69.0504 34.4261 69.0504 35.2216C69.0504 36.0104 68.9046 36.6998 68.6129 37.2898C68.3246 37.8797 67.9202 38.3388 67.3999 38.6669C66.8828 38.995 66.2796 39.1591 65.5902 39.1591ZM65.5902 38.1051C66.1139 38.1051 66.5447 37.9709 66.8828 37.7024C67.2209 37.4339 67.4711 37.081 67.6335 36.6435C67.7959 36.206 67.8771 35.732 67.8771 35.2216C67.8771 34.7112 67.7959 34.2356 67.6335 33.7947C67.4711 33.3539 67.2209 32.9976 66.8828 32.7259C66.5447 32.4541 66.1139 32.3182 65.5902 32.3182C65.0665 32.3182 64.6357 32.4541 64.2976 32.7259C63.9595 32.9976 63.7093 33.3539 63.5469 33.7947C63.3845 34.2356 63.3033 34.7112 63.3033 35.2216C63.3033 35.732 63.3845 36.206 63.5469 36.6435C63.7093 37.081 63.9595 37.4339 64.2976 37.7024C64.6357 37.9709 65.0665 38.1051 65.5902 38.1051ZM75.6539 35.8778V31.3636H76.8272V39H75.6539V37.7074H75.5744C75.3954 38.0952 75.117 38.425 74.7392 38.6967C74.3613 38.9652 73.8841 39.0994 73.3074 39.0994C72.8301 39.0994 72.4058 38.995 72.0346 38.7862C71.6634 38.5741 71.3717 38.2559 71.1596 37.8317C70.9475 37.4041 70.8414 36.8655 70.8414 36.2159V31.3636H72.0147V36.1364C72.0147 36.6932 72.1705 37.1373 72.4821 37.4688C72.7969 37.8002 73.198 37.9659 73.6852 37.9659C73.9769 37.9659 74.2735 37.8913 74.5751 37.7422C74.88 37.593 75.1352 37.3643 75.3407 37.0561C75.5495 36.7479 75.6539 36.3551 75.6539 35.8778ZM78.9762 39V31.3636H80.1097V32.517H80.1893C80.3285 32.1392 80.5804 31.8326 80.945 31.5973C81.3095 31.362 81.7205 31.2443 82.1779 31.2443C82.2641 31.2443 82.3718 31.246 82.5011 31.2493C82.6303 31.2526 82.7281 31.2576 82.7944 31.2642V32.4574C82.7546 32.4474 82.6635 32.4325 82.521 32.4126C82.3817 32.3894 82.2343 32.3778 82.0785 32.3778C81.7073 32.3778 81.3758 32.4557 81.0842 32.6115C80.7958 32.764 80.5671 32.9761 80.3981 33.2479C80.2324 33.5163 80.1495 33.8229 80.1495 34.1676V39H78.9762ZM87.725 29.9119V28.8182H95.3613V29.9119H92.1596V39H90.9267V29.9119H87.725ZM99.1994 39.1591C98.4636 39.1591 97.8289 38.9967 97.2953 38.6719C96.765 38.3438 96.3556 37.8864 96.0673 37.2997C95.7823 36.7098 95.6397 36.0237 95.6397 35.2415C95.6397 34.4593 95.7823 33.7699 96.0673 33.1733C96.3556 32.5734 96.7567 32.1061 97.2704 31.7713C97.7875 31.4332 98.3907 31.2642 99.0801 31.2642C99.4778 31.2642 99.8706 31.3305 100.258 31.4631C100.646 31.5956 100.999 31.8111 101.317 32.1094C101.635 32.4044 101.889 32.7955 102.078 33.2827C102.267 33.7699 102.361 34.3698 102.361 35.0824V35.5795H96.475V34.5653H101.168C101.168 34.1345 101.082 33.75 100.91 33.4119C100.741 33.0739 100.499 32.8071 100.184 32.6115C99.8722 32.416 99.5043 32.3182 99.0801 32.3182C98.6127 32.3182 98.2084 32.4342 97.867 32.6662C97.5289 32.8949 97.2688 33.1932 97.0865 33.5611C96.9042 33.929 96.813 34.3234 96.813 34.7443V35.4205C96.813 35.9972 96.9125 36.486 97.1113 36.8871C97.3135 37.2848 97.5936 37.5881 97.9515 37.7969C98.3095 38.0024 98.7254 38.1051 99.1994 38.1051C99.5076 38.1051 99.786 38.062 100.035 37.9759C100.287 37.8864 100.504 37.7538 100.686 37.5781C100.868 37.3991 101.009 37.1771 101.108 36.9119L102.242 37.2301C102.123 37.6146 101.922 37.9527 101.64 38.2443C101.359 38.5327 101.011 38.758 100.596 38.9205C100.182 39.0795 99.7164 39.1591 99.1994 39.1591ZM106.393 39.179C105.909 39.179 105.47 39.0878 105.076 38.9055C104.681 38.7199 104.368 38.4531 104.136 38.1051C103.904 37.7538 103.788 37.3295 103.788 36.8324C103.788 36.3949 103.874 36.0402 104.047 35.7685C104.219 35.4934 104.449 35.2779 104.738 35.1222C105.026 34.9664 105.344 34.8504 105.692 34.7741C106.044 34.6946 106.397 34.6316 106.751 34.5852C107.215 34.5256 107.591 34.4808 107.88 34.451C108.171 34.4179 108.384 34.3632 108.516 34.2869C108.652 34.2107 108.72 34.0781 108.72 33.8892V33.8494C108.72 33.3589 108.586 32.9777 108.317 32.706C108.052 32.4342 107.649 32.2983 107.109 32.2983C106.549 32.2983 106.11 32.4209 105.792 32.6662C105.474 32.9115 105.25 33.1733 105.121 33.4517L104.007 33.054C104.206 32.59 104.471 32.2287 104.802 31.9702C105.137 31.7083 105.502 31.526 105.896 31.4233C106.294 31.3172 106.685 31.2642 107.069 31.2642C107.315 31.2642 107.596 31.294 107.915 31.3537C108.236 31.41 108.546 31.5277 108.844 31.7067C109.146 31.8857 109.396 32.1558 109.595 32.517C109.794 32.8783 109.893 33.3622 109.893 33.9688V39H108.72V37.9659H108.66C108.581 38.1316 108.448 38.3089 108.263 38.4979C108.077 38.6868 107.83 38.8475 107.522 38.9801C107.214 39.1127 106.837 39.179 106.393 39.179ZM106.572 38.125C107.036 38.125 107.427 38.0339 107.746 37.8516C108.067 37.6693 108.309 37.4339 108.471 37.1456C108.637 36.8572 108.72 36.554 108.72 36.2358V35.1619C108.67 35.2216 108.561 35.2763 108.392 35.326C108.226 35.3724 108.034 35.4138 107.815 35.4503C107.6 35.4834 107.389 35.5133 107.184 35.5398C106.982 35.563 106.818 35.5829 106.692 35.5994C106.387 35.6392 106.102 35.7038 105.836 35.7933C105.575 35.8795 105.363 36.0104 105.2 36.1861C105.041 36.3584 104.961 36.5937 104.961 36.892C104.961 37.2997 105.112 37.608 105.414 37.8168C105.719 38.0223 106.105 38.125 106.572 38.125ZM115.137 39.1591C114.421 39.1591 113.805 38.9901 113.288 38.652C112.771 38.3139 112.373 37.8482 112.094 37.255C111.816 36.6617 111.677 35.9839 111.677 35.2216C111.677 34.446 111.819 33.7616 112.104 33.1683C112.393 32.5717 112.794 32.1061 113.308 31.7713C113.825 31.4332 114.428 31.2642 115.117 31.2642C115.654 31.2642 116.138 31.3636 116.569 31.5625C117 31.7614 117.353 32.0398 117.628 32.3977C117.903 32.7557 118.074 33.1733 118.14 33.6506H116.967C116.877 33.3026 116.678 32.9943 116.37 32.7259C116.065 32.4541 115.654 32.3182 115.137 32.3182C114.68 32.3182 114.279 32.4375 113.934 32.6761C113.593 32.9115 113.326 33.2446 113.134 33.6754C112.945 34.103 112.85 34.6051 112.85 35.1818C112.85 35.7718 112.943 36.2855 113.129 36.723C113.317 37.1605 113.583 37.5002 113.924 37.7422C114.269 37.9841 114.673 38.1051 115.137 38.1051C115.442 38.1051 115.719 38.0521 115.967 37.946C116.216 37.84 116.426 37.6875 116.599 37.4886C116.771 37.2898 116.894 37.0511 116.967 36.7727H118.14C118.074 37.2235 117.91 37.6295 117.648 37.9908C117.389 38.3487 117.046 38.6338 116.619 38.8459C116.194 39.0547 115.701 39.1591 115.137 39.1591ZM121.028 34.4062V39H119.855V28.8182H121.028V32.5568H121.128C121.307 32.1624 121.575 31.8492 121.933 31.6172C122.295 31.3819 122.775 31.2642 123.375 31.2642C123.895 31.2642 124.351 31.3686 124.742 31.5774C125.133 31.7829 125.437 32.0994 125.652 32.527C125.871 32.9512 125.98 33.4915 125.98 34.1477V39H124.807V34.2273C124.807 33.6207 124.649 33.1518 124.335 32.8203C124.023 32.4856 123.59 32.3182 123.037 32.3182C122.652 32.3182 122.308 32.3994 122.003 32.5618C121.701 32.7242 121.463 32.9612 121.287 33.2727C121.115 33.5843 121.028 33.9621 121.028 34.4062ZM131.328 39.1591C130.593 39.1591 129.958 38.9967 129.424 38.6719C128.894 38.3438 128.485 37.8864 128.196 37.2997C127.911 36.7098 127.769 36.0237 127.769 35.2415C127.769 34.4593 127.911 33.7699 128.196 33.1733C128.485 32.5734 128.886 32.1061 129.399 31.7713C129.916 31.4332 130.52 31.2642 131.209 31.2642C131.607 31.2642 131.999 31.3305 132.387 31.4631C132.775 31.5956 133.128 31.8111 133.446 32.1094C133.764 32.4044 134.018 32.7955 134.207 33.2827C134.396 33.7699 134.49 34.3698 134.49 35.0824V35.5795H128.604V34.5653H133.297C133.297 34.1345 133.211 33.75 133.039 33.4119C132.869 33.0739 132.628 32.8071 132.313 32.6115C132.001 32.416 131.633 32.3182 131.209 32.3182C130.742 32.3182 130.337 32.4342 129.996 32.6662C129.658 32.8949 129.398 33.1932 129.215 33.5611C129.033 33.929 128.942 34.3234 128.942 34.7443V35.4205C128.942 35.9972 129.041 36.486 129.24 36.8871C129.442 37.2848 129.722 37.5881 130.08 37.7969C130.438 38.0024 130.854 38.1051 131.328 38.1051C131.637 38.1051 131.915 38.062 132.164 37.9759C132.415 37.8864 132.633 37.7538 132.815 37.5781C132.997 37.3991 133.138 37.1771 133.237 36.9119L134.371 37.2301C134.252 37.6146 134.051 37.9527 133.769 38.2443C133.488 38.5327 133.14 38.758 132.725 38.9205C132.311 39.0795 131.845 39.1591 131.328 39.1591ZM136.275 39V31.3636H137.409V32.517H137.488C137.627 32.1392 137.879 31.8326 138.244 31.5973C138.608 31.362 139.019 31.2443 139.477 31.2443C139.563 31.2443 139.671 31.246 139.8 31.2493C139.929 31.2526 140.027 31.2576 140.093 31.2642V32.4574C140.053 32.4474 139.962 32.4325 139.82 32.4126C139.681 32.3894 139.533 32.3778 139.377 32.3778C139.006 32.3778 138.675 32.4557 138.383 32.6115C138.095 32.764 137.866 32.9761 137.697 33.2479C137.531 33.5163 137.448 33.8229 137.448 34.1676V39H136.275Z" fill="#98A2B3"/>
<path d="M1.51705 26V8.54545H8.40341C9.72159 8.54545 10.8466 8.78125 11.7784 9.25284C12.7159 9.71875 13.429 10.3807 13.9176 11.2386C14.4119 12.0909 14.6591 13.0937 14.6591 14.2472C14.6591 15.4062 14.4091 16.4034 13.9091 17.2386C13.4091 18.0682 12.6847 18.7045 11.7358 19.1477C10.7926 19.5909 9.65057 19.8125 8.30966 19.8125H3.69886V16.8466H7.71307C8.41761 16.8466 9.00284 16.75 9.46875 16.5568C9.93466 16.3636 10.2813 16.0739 10.5085 15.6875C10.7415 15.3011 10.858 14.821 10.858 14.2472C10.858 13.6676 10.7415 13.179 10.5085 12.7812C10.2813 12.3835 9.93182 12.0824 9.46023 11.8778C8.99432 11.6676 8.40625 11.5625 7.69602 11.5625H5.20739V26H1.51705ZM10.9432 18.0568L15.2812 26H11.2074L6.96307 18.0568H10.9432ZM15.5178 8.54545H19.6513L23.6314 16.0625H23.8018L27.782 8.54545H31.9155L25.549 19.8295V26H21.8842V19.8295L15.5178 8.54545ZM34.3679 11.5881V8.54545H48.7031V11.5881H43.3594V26H39.7116V11.5881H34.3679Z" fill="#6938EF"/>
</svg>
