<svg width="13" height="10" viewBox="0 0 13 10" fill="none" xmlns="http://www.w3.org/2000/svg">
<path fill-rule="evenodd" clip-rule="evenodd" d="M11.5008 0.874762C12.0515 1.02589 12.4853 1.4712 12.6325 2.03671C12.9 3.06162 12.9 5.2001 12.9 5.2001C12.9 5.2001 12.9 7.3385 12.6325 8.36349C12.4853 8.92899 12.0515 9.3743 11.5008 9.52551C10.5027 9.8001 6.49998 9.8001 6.49998 9.8001C6.49998 9.8001 2.49728 9.8001 1.4991 9.52551C0.948339 9.3743 0.514594 8.92899 0.367394 8.36349C0.0999756 7.3385 0.0999756 5.2001 0.0999756 5.2001C0.0999756 5.2001 0.0999756 3.06162 0.367394 2.03671C0.514594 1.4712 0.948339 1.02589 1.4991 0.874762C2.49728 0.600098 6.49998 0.600098 6.49998 0.600098C6.49998 0.600098 10.5027 0.600098 11.5008 0.874762ZM5.29999 3.40006V7.40006L8.49999 5.40013L5.29999 3.40006Z" fill="#F2F2F2"/>
</svg>
